<svg width="619" height="314" viewBox="0 0 619 314" fill="none" xmlns="http://www.w3.org/2000/svg">
<path d="M12.9999 109.2C13.0999 108.9 13.1999 108.6 13.1999 108.2C14.1999 86.9996 21.5999 68.1996 35.4999 52.1996C49.0999 36.5996 66.1999 26.7996 86.4999 22.7996C90.4999 21.9996 94.4999 21.7996 98.5999 21.3996C100.6 21.1996 102.7 21.0996 104.7 21.0996C109.6 21.2996 114.5 21.5996 119.4 22.4996C125.4 23.5996 131.3 25.2996 137.2 27.3996C136.1 28.3996 135.1 29.3996 134.1 30.2996C133.9 30.3996 133.5 30.3996 133.2 30.2996C128.7 28.5996 124.1 27.4996 119.3 26.7996C116.1 26.2996 112.9 26.0996 109.7 25.8996C106.4 25.6996 103 25.4996 99.6999 25.5996C89.1999 25.9996 78.9999 28.1996 69.3999 32.6996C66.3999 34.0996 63.2999 35.5996 61.0999 38.2996C59.9999 39.5996 60.0999 39.8996 61.6999 40.2996C62.1999 40.3996 62.6999 40.4996 63.1999 40.6996C66.3999 41.5996 67.6999 43.5996 67.2999 46.8996C66.7999 50.4996 65.1999 53.2996 62.3999 55.4996C60.9999 56.5996 59.5999 57.7996 58.4999 59.0996C57.5999 60.1996 56.8999 61.6996 56.4999 63.0996C55.8999 64.9996 56.7999 66.2996 58.4999 67.1996C59.4999 67.6996 60.4999 68.2996 61.3999 68.9996C63.7999 70.7996 64.0999 73.6996 62.9999 76.3996C62.4999 77.5996 61.5999 78.6996 60.7999 79.7996C59.3999 81.4996 57.9999 83.1996 57.3999 85.4996C57.0999 86.4996 57.2999 87.2996 58.0999 87.8996C58.5999 88.2996 59.0999 88.5996 59.5999 88.8996C64.1999 91.5996 65.3999 95.6996 63.9999 100.6C63.5999 102.2 62.5999 103.7 61.6999 105.2C60.1999 107.6 59.5999 110 60.3999 112.7C60.9999 114.7 62.2999 116.1 64.4999 116.7C66.5999 117.3 68.6999 118 70.5999 119C74.7999 121.2 76.2999 125.1 74.9999 129.6C74.3999 131.5 73.5999 133.4 73.0999 135.3C71.8999 140 74.7999 145 79.5999 147C82.2999 148.1 85.0999 148.3 87.8999 148.2C94.6999 148.1 98.5999 153.1 97.5999 159.2C96.7999 163.7 100.2 168 104.2 169.5C106.5 170.4 108.4 169.7 110.3 168.7C113.4 167.1 116.6 167.2 119.7 168.1C122.7 169 124.8 171.2 125.9 174.2C127.5 178.5 131.4 179.7 135.1 176.9C135.6 176.5 136.1 176 136.6 175.6C136.7 175.7 136.8 175.7 136.9 175.7C139.3 177.6 141.7 179.6 144.2 181.6C141.2 184.4 137.9 185.9 133.7 185.1C134.6 186.4 136.5 186.9 138.5 186.5C141.3 185.9 143.7 184.7 145.7 182.6C148.3 184.2 150.9 185.9 153.7 187.6C150.5 189.4 147.5 191.2 144.5 192.7C136.4 196.8 127.8 199.6 118.8 201.1C112.6 202.2 106.4 202.6 100.2 202.2C76.2999 201 55.8999 192 38.9999 175C26.7999 162.8 18.9999 148.1 15.2999 131.3C14.3999 127.4 13.9999 123.4 13.3999 119.4C13.1999 117.8 13.0999 116.2 12.8999 114.7C12.9999 113.1 12.9999 111.2 12.9999 109.2ZM121.9 189.9C122 190 122.1 190 122.1 190.1C122.2 191.5 121.7 192.1 120.1 192.4C117.9 192.9 115.7 192.7 113.6 191.9C112.5 191.5 111.5 190.9 111.4 189.5C109.3 190.7 109.2 192.3 111.2 193.6C111.5 193.8 111.7 193.9 112 194.1C115.2 195.4 118.4 195.6 121.7 194.7C122.8 194.4 124 193.9 124.1 192.5C124.2 191.1 123.1 190.5 122.1 189.9C122.2 189.9 122.1 189.9 121.9 189.9ZM29.6999 77.0996C29.9999 76.9996 30.3999 76.9996 30.6999 76.8996C31.3999 76.7996 31.8999 77.0996 31.8999 77.8996C31.7999 79.0996 31.7999 80.2996 31.3999 81.3996C31.0999 82.4996 30.4999 83.4996 29.9999 84.5996C30.0999 84.5996 30.1999 84.5996 30.2999 84.5996C32.3999 82.0996 33.8999 79.3996 33.7999 75.9996C33.6999 75.0996 32.8999 74.5996 31.9999 75.1996C31.2999 75.5996 30.4999 76.3996 29.6999 77.0996C29.6999 77.1996 29.6999 77.1996 29.6999 77.1996V77.0996ZM44.8999 83.5996C44.9999 83.5996 45.0999 83.6996 45.1999 83.6996C45.0999 83.5996 45.0999 83.4996 44.9999 83.3996C43.4999 81.6996 41.8999 81.3996 40.0999 82.3996C37.2999 83.9996 34.8999 88.5996 35.2999 91.8996C35.4999 93.0996 35.7999 94.1996 37.0999 95.1996C36.4999 92.2996 37.3999 89.8996 38.4999 87.4996C39.7999 84.5996 41.6999 83.4996 44.8999 83.5996ZM123.2 179C122.8 179.1 122.4 179.2 122.1 179.3C120 179.9 117.9 180.4 115.6 180C112.6 179.4 109.9 178.4 107.9 175.8C107.5 177.5 107.7 178.8 108.5 180.1C110.8 183.8 117.6 185.1 121.1 182.4C122.1 181.5 123 180.5 123.2 179C123.2 179 123.3 179 123.4 179V178.9C123.2 178.9 123.2 179 123.2 179ZM92.9999 163.8C89.9999 163.3 87.4999 161.7 85.2999 159.8C82.9999 157.8 81.0999 155.6 80.9999 152.2C77.4999 155.5 78.2999 160.4 81.5999 164C84.1999 166.7 89.8999 167.1 92.9999 163.8ZM68.4999 160.1C64.3999 160.5 62.4999 157.7 60.6999 154.8C58.7999 151.8 58.5999 148.6 58.8999 145.2C56.7999 145.8 54.9999 148.3 54.7999 150.4C54.2999 154.2 57.7999 159.6 61.4999 160.9C63.8999 161.9 66.2999 161.7 68.4999 160.1ZM46.1999 129.3C43.2999 127 42.1999 123.9 41.5999 120.6C40.9999 117.3 40.8999 114 43.1999 111.2C39.7999 111.6 36.3999 115.8 36.9999 120.9C37.4999 125.7 41.2999 129.9 46.1999 129.3ZM99.6999 180.8C96.3999 182.1 93.3999 181.9 90.3999 180.9C87.3999 179.9 84.6999 178.4 83.3999 175.2C81.9999 177.5 84.4999 182.6 87.8999 184.5C92.7999 187.3 97.5999 184.9 99.6999 180.8ZM70.1999 183.8C71.7999 183.8 73.2999 182.9 73.1999 181.5C73.1999 180.2 73.0999 178.8 72.4999 177.7C70.9999 174.4 68.3999 172.1 64.9999 170.7C64.0999 170.3 63.0999 170.2 62.0999 170.2C59.8999 170.1 58.1999 172.7 59.4999 174.9C59.7999 172.8 60.7999 172.1 62.7999 172.8C63.1999 172.9 63.5999 173.1 63.8999 173.2C66.6999 174.7 68.7999 177 69.7999 180C70.1999 181.1 70.0999 182.4 70.1999 183.8ZM40.8999 152.5C41.7999 152.6 42.3999 152.8 42.9999 152.7C44.8999 152.4 45.4999 150.9 45.7999 149.4C46.4999 144.6 44.5999 140.4 40.1999 137.8C37.5999 136.3 35.0999 137.8 34.9999 140.9C36.6999 139.4 37.7999 139.4 39.3999 141.1C41.4999 143.3 43.0999 145.7 42.8999 149.1C42.6999 150.3 42.4999 151.5 40.8999 152.5ZM62.5999 121C59.3999 121.9 57.0999 126.6 58.1999 129.8C59.6999 134.5 64.9999 137 68.2999 135.3C65.4999 134 63.5999 132 62.3999 129.3C61.0999 126.6 61.0999 123.8 62.5999 121ZM54.4999 91.2996C52.3999 92.1996 50.6999 93.6996 49.4999 95.5996C48.0999 97.8996 47.6999 100.2 49.1999 102.6C50.6999 105 53.0999 105.7 55.9999 105.6C52.9999 104.7 51.7999 102.1 51.6999 98.9996C51.5999 96.1996 52.6999 93.5996 54.4999 91.2996ZM43.0999 74.5996C42.1999 73.4996 41.4999 72.1996 41.7999 70.7996C42.2999 68.6996 43.1999 66.6996 44.5999 64.8996C46.0999 62.9996 47.9999 61.5996 50.3999 60.6996C48.8999 59.9996 47.6999 60.2996 46.5999 60.8996C42.8999 62.6996 40.5999 65.6996 39.4999 69.5996C39.2999 70.2996 39.2999 71.0996 39.2999 71.7996C39.5999 73.8996 40.9999 74.8996 43.0999 74.5996ZM25.4999 116.1C25.5999 116.2 25.6999 116.3 25.7999 116.4C26.5999 115.8 27.4999 115.3 28.1999 114.6C30.1999 112.4 31.2999 109.7 31.6999 106.7C31.8999 104.9 31.8999 103.1 31.6999 101.3C31.5999 100.1 30.4999 99.6996 29.5999 99.9996C28.2999 100.4 26.3999 102.6 26.1999 104.1C28.4999 103.3 29.6999 104.1 29.8999 106.5C29.9999 107.2 29.8999 108 29.7999 108.8C29.1999 111.7 27.8999 114.2 25.4999 116.1ZM56.5999 69.9996C52.5999 69.7996 48.8999 74.3996 49.7999 78.1996C50.2999 80.4996 52.7999 81.8996 55.5999 81.5996C50.8999 78.4996 52.9999 73.1996 56.5999 69.9996ZM61.9999 45.3996C58.2999 46.3996 55.8999 48.5996 54.2999 51.5996C53.9999 52.0996 53.8999 52.7996 53.9999 53.2996C54.0999 54.9996 56.0999 56.0996 57.1999 55.5996C57.1999 54.6996 56.9999 53.8996 57.1999 53.1996C58.0999 50.2996 59.7999 47.7996 61.9999 45.3996ZM41.1999 165C44.1999 164.9 47.3999 168.4 47.1999 172.2C48.5999 171.9 49.1999 171.3 49.2999 170C49.4999 167.2 46.7999 163.7 43.9999 163.3C42.4999 163 41.4999 163.6 41.1999 165ZM85.0999 193C84.4999 190.6 82.2999 189.2 78.9999 189.4C77.7999 189.4 76.9999 190.2 76.8999 191.2C79.9999 190.3 82.4999 191.8 85.0999 193ZM104.3 195.6C105 194.9 104.7 194.3 104.2 193.8C103 192.6 99.7999 192 98.1999 192.8C97.5999 193.1 97.0999 193.6 97.4999 194.3C99.9999 194 102.3 193.7 104.3 195.6ZM26.4999 131.3C27.6999 131.3 28.1999 130.7 28.2999 129.7C28.5999 128.1 27.7999 126.2 26.4999 125.5C25.7999 125.1 25.0999 125.1 24.4999 125.8C26.6999 127.1 26.9999 129 26.4999 131.3ZM46.8999 53.7996C45.7999 52.7996 46.5999 52.1996 46.8999 51.5996C47.2999 50.9996 47.7999 50.4996 48.1999 49.8996C48.0999 49.7996 47.9999 49.7996 47.8999 49.6996C47.0999 50.4996 46.1999 51.2996 45.4999 52.2996C45.0999 52.7996 45.0999 53.5996 44.8999 54.1996C45.5999 53.9996 46.2999 53.8996 46.8999 53.7996Z" fill="#2A9927"/>
<path d="M102.6 240.2C104.1 248.2 105.7 256.2 107.2 264.2H107.3C107.6 261.2 107.8 258.2 108.1 255.3C108.4 252.1 108.9 249 109 245.8C109.4 238.9 111.4 232.5 114.2 226.4C115.2 224.2 116.5 222.3 117.7 220.1C112.7 220.2 107.5 220 102.6 218.1C104.7 217.6 106.9 217.2 108.9 216.5C110.9 215.8 112.9 214.9 114.8 213.8C108.8 212.6 102.7 211.7 96.7002 209.4C98.7002 209.3 100.4 209.1 102.1 209C105.1 208.8 108.1 208.8 111.1 208.5C116.9 207.9 122.7 207.1 128.3 205.1C129.9 204.5 131.6 204.3 133.3 204C134.1 203.8 134.5 204.3 134.8 204.9C135.7 206.6 135.7 208.4 135.5 210.1C134.9 214.1 132.5 217.1 129 218.7C121.6 222.1 118.2 228.3 116.6 235.7C115.5 240.8 114.6 245.9 113.7 251.1C113 255.5 112.4 260 111.8 264.4C111.1 269.4 110.5 274.4 109.9 279.4C109.5 282.8 109.2 286.2 108.9 289.6C108.5 294.5 107.7 299.3 105.5 303.7C104.9 304.8 104.7 304.9 103.8 303.9C103 303 102.6 302.1 102.6 300.9C102.6 298 102.5 295.2 102.4 292.3C102.3 290.4 102.2 288.6 102.2 286.7C102.1 283.6 102 280.6 101.9 277.5C101.8 269.4 101.7 261.2 101.7 253.1C101.7 248.9 102 244.7 102.2 240.5C102.2 240.4 102.3 240.2 102.3 240.1C102.5 240.2 102.5 240.2 102.6 240.2Z" fill="white"/>
<path d="M99.6 299.2C99 296 98.4 292.8 97.8 289.5C97.2 285.9 96.6 282.3 96.1 278.6C95.7 275.9 95.5 273.2 95.1 270.5C94.3 265.2 93.6 259.9 92.6 254.6C92 251.4 91.2 248.2 90.5 245C89.7 241 88.9 237.1 88.1 233.1C87.8 231.6 87.2 230.1 86.7 228.7C85 223.9 81.9 220.3 77.5 217.8C75.7 216.7 74 215.4 72.6 213.9C70.6 211.8 69.5 209.2 69.5 206.2C69.5 205.7 69.6 205.1 69.8 204.6C70.4 202.3 70.8 201.9 73.1 202.1C74.7 202.3 76.2 202.7 77.7 203.3C79.2 203.9 79.9 205.1 79.5 206.7C78.9 209.4 79.7 211.8 81.3 213.8C82.7 215.5 84.4 217.1 86 218.6C87.3 219.9 88.8 221.1 90.2 222.4C93.1 225.4 95 229 95.5 233.2C95.8 236 96.1 238.8 96.2 241.6C96.4 245.7 96.5 249.8 96.7 253.9C96.9 258.1 97.3 262.3 97.7 266.6C98 270.2 98.4 273.7 98.6 277.3C98.9 281.3 99.1 285.3 99.3 289.3C99.5 292.7 99.8 296 100.1 299.3C99.8 299.2 99.7 299.2 99.6 299.2Z" fill="white"/>
<path d="M315.7 165C315.7 142.1 315.7 119.3 315.7 96.6002C315.8 96.6002 316 96.5002 316.1 96.5002C325.5 96.5002 334.8 96.3002 344.2 96.7002C358.9 97.4002 370.1 106.6 373.5 121.3C374.5 125.7 374.8 130.2 374.4 134.7C373.7 142.4 371.2 149.3 365.9 155C361.4 159.9 355.7 162.8 349.2 164.2C345.5 165 341.8 165 338.1 165C331.1 165 324.1 165 317.1 165C316.6 165 316.2 165 315.7 165ZM328.9 108.4C328.9 123.3 328.9 138.3 328.9 153.2C333.6 153.2 338.1 153.4 342.7 153.1C344.9 153 347.1 152.4 349.1 151.6C357 148.2 360 141.4 360.7 133.4C361 130.6 360.7 127.6 360.2 124.8C358.8 116.7 353.8 109.5 344.1 108.6C339.1 107.9 334 108.4 328.9 108.4Z" fill="white"/>
<path d="M512.6 143.9C512.4 148.7 516.7 154.4 521.4 155.8C528.4 157.9 534.4 155.7 537.8 149.7C541.5 150.7 545.1 151.7 548.9 152.8C548.6 153.3 548.4 153.7 548.2 154.1C544.1 160.8 538.2 164.5 530.5 165.6C528.5 165.9 526.5 166.2 524.5 166.1C513.9 165.5 503.5 160.3 499.6 147.5C498.8 144.7 498.4 141.8 498.4 138.9C498.5 127.4 507.5 116.3 518.8 114.3C527.4 112.7 535.6 113.8 542.7 119.6C548.1 124 550.7 129.8 551.5 136.6C551.7 138.6 551.7 140.6 551.8 142.7C551.9 143.8 551.5 144.2 550.3 144.2C538.2 144.2 526.1 144.2 514.1 144.2C513.6 143.9 513.2 143.9 512.6 143.9ZM512.4 135.4C521 135.4 529.7 135.4 538.3 135.4C538.7 129.5 532.7 123 526.9 122.9C518.4 122.8 512 128.2 512.4 135.4Z" fill="white"/>
<path d="M233.8 143.9C220.7 143.9 207.8 143.9 194.5 143.9C194.8 145.1 194.9 146.3 195.2 147.3C197 152.4 200.7 155.6 206 156.4C211 157.2 217 155.2 219.6 150.2C219.7 150 220.2 149.7 220.4 149.8C223.9 150.7 227.5 151.7 231.1 152.7C229.9 155.2 228.3 157.2 226.5 159C222.5 162.8 217.8 164.9 212.3 165.6C210.6 165.8 208.8 166.1 207.1 166C194.1 165.4 183.3 158.2 181.1 143.9C178.8 129.2 188 115.4 203.9 113.6C212.5 112.6 220.3 114.6 226.7 120.9C230.7 124.9 232.7 129.8 233.6 135.3C234.1 138.2 234.1 140.9 233.8 143.9ZM220.5 135.4C220.3 131.3 218.7 127.9 215.4 125.4C212.1 122.9 208.4 122.4 204.4 123.2C198 124.5 194 131 194.6 135.4C203.2 135.4 211.9 135.4 220.5 135.4Z" fill="white"/>
<path d="M382.9 114.4C387.2 114.4 391.4 114.4 395.8 114.4C395.8 114.9 395.8 115.3 395.8 115.7C395.8 125.6 395.7 135.5 395.9 145.4C395.9 147.7 396.5 150 398 151.9C400.2 154.8 403.2 155.4 406.7 154.7C411.6 153.7 414.9 150.7 417.2 146.4C417.4 145.9 417.5 145.3 417.5 144.8C417.5 135.1 417.5 125.5 417.5 115.8C417.5 115.4 417.5 114.9 417.5 114.4C421.9 114.4 426.1 114.4 430.5 114.4C430.5 114.9 430.5 115.3 430.5 115.8C430.5 127.4 430.5 139 430.5 150.6C430.5 152.8 431.3 153.7 433.5 154C433.7 154 433.8 154 434 154.1C434 157.7 434 161.4 434 165.1C431 165.6 427.9 166.1 424.8 165.5C422 164.9 419.9 162.2 419.6 159.4C419.5 158.3 419.4 157.2 419.3 156C418.9 156.4 418.6 156.8 418.3 157.2C414.5 162.1 409.4 164.8 403.3 165.7C399.9 166.2 396.4 166.3 393 165.2C387.8 163.5 385.1 159.5 383.9 154.5C383.3 152.1 383 149.7 382.9 147.3C382.8 136.6 382.9 125.9 382.8 115.2C382.8 114.9 382.9 114.7 382.9 114.4Z" fill="white"/>
<path d="M477.6 164.9C477.6 164.4 477.6 164 477.6 163.6C477.6 154.7 477.7 145.8 477.5 136.9C477.5 134.4 477 131.8 476.4 129.4C475.7 126.7 473.1 125.3 470.4 125.2C464.2 124.9 460.4 128.5 457.4 133.3C456.8 134.3 456.5 135.8 456.5 137C456.4 145.9 456.5 154.7 456.5 163.6C456.5 164 456.5 164.5 456.5 165C452.2 165 447.9 165 443.6 165C443.6 148.2 443.6 131.4 443.6 114.6C447.5 114.6 451.3 114.6 455.3 114.6C455.3 117.5 455.3 120.5 455.3 123.6C455.5 123.4 455.6 123.3 455.7 123.3C459.4 117.7 464.7 114.8 471.3 114C474.7 113.6 478.1 113.5 481.4 114.6C485.2 115.9 487.5 118.8 489 122.4C490.1 125.2 490.6 128.2 490.6 131.2C490.7 142.3 490.6 153.3 490.6 164.4C490.6 164.6 490.6 164.8 490.5 165C486.2 164.9 482 164.9 477.6 164.9Z" fill="white"/>
<path d="M128.4 96.4004C132.8 96.4004 137.1 96.4004 141.5 96.4004C141.5 115.3 141.5 134.1 141.5 153.2C153.3 153.2 164.9 153.2 176.5 153.2C176.5 157.2 176.5 161 176.5 164.9C160.5 164.9 144.5 164.9 128.4 164.9C128.4 142.1 128.4 119.3 128.4 96.4004Z" fill="white"/>
<path d="M599.3 119.7C597.6 122.3 595.8 124.9 594.1 127.5C593.1 126.9 592.1 126.4 591.1 125.9C586.5 123.4 581.7 122.2 576.5 122.7C574 122.9 571.5 123.7 570.5 126.5C569.6 129 570.7 131.6 573.2 132.4C575.8 133.3 578.5 133.8 581.1 134.7C585.1 136 589.1 137.3 593 138.8C594.5 139.4 595.9 140.3 597.1 141.3C600.5 144.2 601.2 148.1 600.6 152.3C599.8 158.4 595.9 162.1 590.4 164.2C586.8 165.6 582.9 166.3 579.1 166.1C571.3 165.7 563.8 164.2 557 160.1C556.7 159.9 556.4 159.7 556.1 159.5C556 159.4 555.9 159.3 555.7 159.2C557.4 156.3 559.1 153.4 560.9 150.4C561.5 150.8 562 151.1 562.5 151.4C567 154.1 571.7 155.9 577 156.5C579.4 156.8 581.7 156.6 584 155.9C586.6 155.2 588.2 153.2 588.2 150.9C588.2 149.1 587.2 147.7 585.6 147.2C582 145.9 578.2 144.8 574.5 143.8C570.1 142.6 565.6 141.7 562 138.8C558.4 136.1 557.5 132.3 558.1 128C559.3 120 566.1 114.9 573.9 113.8C582.9 112.6 591.2 114.9 598.9 119.5C599.1 119.5 599.2 119.6 599.3 119.7Z" fill="white"/>
<path d="M281.4 119.7C279.7 122.3 277.9 124.9 276.2 127.5C274.9 126.8 273.6 126.1 272.3 125.4C268 123.2 263.4 122.3 258.6 122.6C256.6 122.7 253.2 124.2 252.7 126.4C251.9 129.3 252.9 131.6 255.7 132.5C259.8 133.8 264 134.8 268.1 136.1C270.8 137 273.5 138.1 276.1 139.2C278.6 140.3 280.7 142 281.8 144.6C282.3 145.8 282.6 147.2 282.7 148.5C282.8 150.4 282.8 152.4 282.3 154.2C281.1 159.1 277.6 162.1 273.1 163.9C268.4 165.8 263.5 166.1 258.5 165.8C253.6 165.5 248.9 164.3 244.3 162.6C242 161.8 239.9 160.5 237.6 159.4C239.5 156.3 241.2 153.4 243 150.4C243.4 150.6 243.7 150.8 244 151C247.7 153.5 251.9 155.2 256.3 156.2C259.3 156.8 262.4 157.1 265.5 156.2C266.3 156 267.2 155.7 267.9 155.2C269.9 154 270.6 152.2 270.3 150C270 148.3 268.7 147.4 267.3 146.9C264.9 146 262.4 145.3 259.9 144.5C256.3 143.4 252.7 142.5 249.2 141.4C246.6 140.6 244.1 139.3 242.5 137C239.5 132.8 239.6 128.3 241.7 123.8C244.6 117.6 249.8 114.7 256.4 113.8C265.4 112.6 273.7 114.9 281.4 119.5C281.3 119.6 281.3 119.6 281.4 119.7Z" fill="white"/>
<path d="M363.4 94.6C364.1 94.2 364.7 93.8 365.2 93.4C365.3 93.4 365.4 93.4 365.5 93.5C368.6 98.2 373.1 99.7 378.4 99.4C382.8 99.2 387.3 97.2 388.8 92.1C389.1 91.2 389.2 90.3 389.2 89.4C389.3 87.1 389.2 84.9 389.2 82.4C388.9 82.7 388.7 82.9 388.5 83.1C385.3 87.2 381.1 89.4 375.8 88.9C371 88.4 367.4 85.7 364.9 81.6C360.2 73.9 362.6 63.7 369.1 59.1C372.1 57 375.3 56.3 379 56.8C382.9 57.3 385.5 59.5 388 62.2C388.4 62.6 388.8 63.1 389.4 63.8C389.4 61.5 389.4 59.4 389.4 57.2C390.3 57.2 391.1 57.2 392.1 57.2C392.1 57.6 392.2 58 392.2 58.3C392.2 68.6 392.2 78.9 392.2 89.2C392.2 95.9 387.8 100.2 381.9 101.4C379.6 101.9 377.1 102.1 374.7 101.9C369.8 101.2 365.8 99.1 363.4 94.6ZM389.1 72.8C389.1 71.9 389 70.9 389.1 70C389.5 67.3 388.3 65.2 386.5 63.3C381.1 57.5 372.4 57.3 367.8 64.4C365.3 68.2 364.5 72.4 366 76.9C368.8 85.4 378.8 89.8 386.5 82.3C388.2 80.6 389.3 78.7 389.1 76.1C389 75.1 389.1 74 389.1 72.8Z" fill="white"/>
<path d="M300.7 44.2998C301.6 44.2998 302.4 44.2998 303.1 44.2998C303.3 44.2998 303.4 44.2998 303.7 44.3998C303.7 44.8998 303.7 45.3998 303.7 45.7998C303.7 58.2998 303.7 70.8998 303.7 83.3998C303.7 84.2998 303.7 84.9998 304.5 85.6998C305 86.0998 304.7 87.3998 304.8 88.2998C302.2 88.5998 300.9 87.4998 300.9 84.9998C300.9 84.1998 300.9 83.3998 300.9 82.7998C299.2 84.1998 297.7 85.8998 295.8 86.9998C289.2 90.9998 281.6 88.5998 277.3 82.7998C275.5 80.3998 274.6 77.6998 274.1 74.7998C273.1 68.8998 276.5 61.1998 281.9 58.1998C287.5 55.0998 294.4 56.2998 298.8 61.2998C299.4 61.9998 300 62.7998 300.7 63.5998C300.7 56.9998 300.7 50.6998 300.7 44.2998ZM300.8 72.8998C300.8 71.8998 300.7 70.8998 300.8 69.8998C301.2 67.2998 299.9 65.3998 298.4 63.6998C298.1 63.2998 297.7 62.9998 297.4 62.6998C293.3 58.9998 287.8 58.0998 283.4 60.7998C279 63.4998 275.8 70.3998 277.5 76.3998C279.8 84.7998 289.4 90.2998 297.8 82.8998C299.8 81.1998 301 79.0998 300.7 76.3998C300.7 75.1998 300.8 73.9998 300.8 72.8998Z" fill="white"/>
<path d="M226.3 82.4998C226.3 84.3998 226.3 86.2998 226.3 88.2998C225.4 88.2998 224.6 88.2998 223.7 88.2998C223.7 73.5998 223.7 58.9998 223.7 44.2998C224.6 44.2998 225.5 44.2998 226.6 44.2998C226.6 50.6998 226.6 57.0998 226.6 63.1998C228.5 61.5998 230.2 59.6998 232.3 58.2998C234.9 56.4998 237.8 56.0998 240.9 56.6998C247.4 57.9998 251.6 62.4998 252.8 69.0998C253.8 74.4998 252.9 79.3998 249.3 83.6998C246.8 86.6998 243.7 88.4998 239.8 88.8998C234.3 89.4998 230.1 87.1998 226.8 82.8998C226.7 82.7998 226.6 82.5998 226.5 82.3998C226.4 82.4998 226.4 82.4998 226.3 82.4998ZM226.6 72.8998C226.6 74.3998 226.5 75.8998 226.6 77.3998C226.7 78.3998 226.9 79.3998 227.3 80.1998C229.6 84.4998 236.6 87.9998 242.4 85.1998C249.7 81.6998 252.3 72.3998 248 64.9998C244.2 58.4998 236.3 57.0998 230.6 61.9998C228 64.2998 225.9 66.8998 226.5 70.7998C226.7 71.4998 226.6 72.1998 226.6 72.8998Z" fill="white"/>
<path d="M163.6 77.4997C164.5 77.8997 165.2 78.2997 166.3 78.7997C165.4 80.0997 164.6 81.4997 163.6 82.5997C160.3 86.2997 156 87.9997 151.1 88.5997C140.8 89.7997 133.4 81.7997 130.8 75.1997C129.4 71.5997 128.7 67.8997 129.2 64.1997C130.2 55.7997 135.6 47.2997 145.7 45.4997C152.9 44.2997 159.3 45.8997 163.9 52.1997C164.4 52.8997 164.8 53.5997 165.3 54.3997C164.4 54.8997 163.7 55.2997 163 55.6997C161.7 54.1997 160.6 52.5997 159.1 51.2997C155.5 48.2997 151.3 47.3997 146.7 48.0997C139.3 49.2997 135.2 53.9997 133.1 60.6997C132.5 62.6997 132.1 64.8997 132.1 66.9997C132.1 75.3997 138.1 83.4997 146.1 85.3997C151.4 86.6997 158.8 84.6997 162.7 78.6997C163 78.5997 163.2 78.0997 163.6 77.4997Z" fill="white"/>
<path d="M339.8 81.3002C338.2 84.7002 335.6 86.7002 332.4 88.0002C324.3 91.2002 316 87.0002 312.7 79.7002C308.6 70.6002 313.2 59.9002 322.1 57.2002C331.7 54.3002 340.2 60.7002 341.8 69.7002C342 71.0002 342 72.4002 342.1 73.9002C332.8 73.9002 323.7 73.9002 314.4 73.9002C314.4 76.2002 315.1 78.1002 316.1 80.0002C318.2 83.9002 321.5 86.3002 325.8 86.7002C330 87.0002 333.8 85.6002 336.3 81.9002C337.1 80.8002 337.7 80.6002 338.8 81.1002C339.1 81.1002 339.4 81.2002 339.8 81.3002ZM339 71.4002C338.7 63.0002 331.4 58.1002 325.1 58.9002C319 59.7002 314 65.5002 314.4 71.4002C322.6 71.4002 330.8 71.4002 339 71.4002Z" fill="white"/>
<path d="M430.2 72.7004C430 78.7004 427.6 83.5004 422.6 86.7004C415.4 91.4004 406.5 89.0004 402 82.0004C397.3 74.6004 398.6 66.1004 404.6 60.5004C412.6 53.0004 425.2 56.2004 429 66.7004C429.6 68.6004 429.8 70.7004 430.2 72.7004ZM427 72.7004C427 70.1004 426.3 67.6004 425 65.4004C420.9 58.5004 412.7 56.9004 407 62.1004C401.3 67.2004 400.5 75.9004 405.7 82.0004C410.1 87.1004 417.3 87.7004 422.1 83.5004C425.3 80.7004 426.9 77.0004 427 72.7004Z" fill="white"/>
<path d="M211 57C212 57 212.9 57 213.9 57C213.9 57.5 213.9 57.9 213.9 58.3C213.9 66.7 213.9 75.2 213.9 83.6C213.9 84.4 213.8 85.2 214.8 85.6C215 85.7 215 86.1 215.1 86.3C215.1 86.9 215.1 87.6 215.1 88.2C212.6 88.7 211.3 87.6 211.3 85.2C211.3 83.9 211.3 82.6 211.3 81C210.9 81.6 210.7 81.9 210.4 82.3C207.7 86.1 204.1 88.4 199.4 88.9C193.5 89.5 189.9 87 188.5 81.3C188.1 79.6 187.9 77.9 187.8 76.2C187.7 70.2 187.8 64.3 187.8 58.3C187.8 57.9 187.8 57.5 187.8 57.1C188.8 57.1 189.8 57.1 190.8 57.1C190.8 58 190.8 58.9 190.8 59.8C190.9 66 190.9 72.2 191 78.4C191.1 84.2 196.2 87.7 201.9 86C206.3 84.6 209.3 81.7 210.9 77.4C211.1 76.9 211.1 76.4 211.1 75.9C211 69.5 211 63.3 211 57Z" fill="white"/>
<path d="M453.9 63.0999C452.4 63.0999 451 63.0999 449.5 63.0999C449.5 62.1999 449.5 61.4999 449.5 60.5999C451 60.5999 452.3 60.5999 453.9 60.5999C453.9 58.3999 453.9 56.2999 453.9 54.1999C454 51.7999 454.7 49.4999 455.9 47.3999C458.7 42.3999 465.9 42.9999 469 45.6999C468.7 46.2999 468.3 46.9999 468 47.7999C466.5 46.7999 464.8 46.3999 463 46.3999C460.9 46.3999 459.4 47.3999 458.4 49.0999C457.2 50.9999 457 53.1999 456.9 55.3999C456.8 57.0999 456.9 58.7999 456.9 60.4999C459.9 60.4999 462.8 60.4999 465.8 60.4999C465.8 61.3999 465.8 62.0999 465.8 62.9999C462.9 62.9999 460 62.9999 457 62.9999C457 71.3999 457 79.7999 457 88.1999C456 88.1999 455 88.1999 454 88.1999C453.9 79.9999 453.9 71.5999 453.9 63.0999Z" fill="white"/>
<path d="M183.3 85.5004C183.5 86.3004 183.7 87.0004 183.9 87.8004C181.7 88.7004 179.5 88.9004 177.2 88.6004C174.9 88.3004 173.2 86.1004 173.2 83.6004C173.2 70.6004 173.2 57.6004 173.2 44.7004C173.2 44.6004 173.3 44.6004 173.3 44.4004C174.2 44.4004 175.2 44.4004 176.2 44.4004C176.2 44.8004 176.2 45.2004 176.2 45.7004C176.2 57.7004 176.2 69.7004 176.2 81.8004C176.2 85.2004 178.3 86.8004 181.6 85.9004C182.1 85.6004 182.7 85.6004 183.3 85.5004Z" fill="white"/>
<path d="M437.6 44.2998C438.7 44.2998 439.6 44.2998 440.7 44.2998C440.7 44.7998 440.7 45.1998 440.7 45.5998C440.7 57.5998 440.7 69.5998 440.7 81.6998C440.7 85.0998 442.8 86.6998 446.1 85.7998C446.6 85.6998 447.1 85.5998 447.8 85.4998C448 86.1998 448.2 86.9998 448.4 87.7998C446.2 88.6998 444 88.8998 441.8 88.5998C439.4 88.2998 437.7 85.9998 437.7 83.1998C437.7 76.0998 437.7 69.0998 437.7 61.9998C437.6 56.0998 437.6 50.2998 437.6 44.2998Z" fill="white"/>
<path d="M64.6001 80.9997C64.7001 80.5997 64.7001 80.1997 64.9001 79.7997C66.6001 76.8997 69.2001 75.2997 72.6001 75.1997C74.6001 75.0997 76.5001 75.3997 78.3001 76.4997C82.1001 78.8997 82.6001 83.8997 80.4001 87.0997C78.4001 90.0997 75.5001 91.2997 72.1001 91.3997C71.8001 91.3997 71.4001 91.2997 71.2001 91.2997C72.2001 90.2997 73.3001 89.4997 74.0001 88.4997C75.2001 86.8997 75.2001 84.8997 74.3001 83.1997C73.3001 81.3997 71.6001 80.3997 69.5001 80.1997C67.9001 80.0997 66.2001 80.1997 64.6001 80.9997Z" fill="#2B9A28"/>
<path d="M88.9002 145.4C90.4002 139 84.5002 130.1 78.2002 129.2C79.2002 127.5 80.7002 126.5 82.5002 126.3C84.1002 126.1 85.9002 126.1 87.3002 126.7C94.0002 129.4 96.2002 136.4 92.9002 142.2C91.9002 144.1 90.4002 145.2 88.9002 145.4Z" fill="#2B9A28"/>
<path d="M66.5 103.4C68.4 99.2998 73.9 98.4998 77 101.2C80 103.9 81.1 108.6 79.8 112C78.5 115.3 74.2 117.3 70.8 115.5C73 113.3 73.1 110.7 72.4 108C71.5 104.8 70.1 103.8 66.5 103.4Z" fill="#2B9A28"/>
<path d="M83.7002 109.3C84.5002 108.3 85.2002 107.2 86.2002 106.3C88.1002 104.6 90.5002 104.5 92.9002 105.2C98.5002 106.9 101.5 114.4 98.7002 119.6C97.7002 121.4 96.3002 122.7 94.1002 123.2C95.8002 119.6 94.9002 116.3 92.7002 113.4C90.6002 110.5 88.1002 108.1 83.7002 109.3Z" fill="#2B9A28"/>
<path d="M91.5001 101.2C94.6001 99.5003 94.8001 96.7003 94.3001 93.5003C93.6001 89.7003 91.0001 87.8003 86.6001 87.6003C87.8001 85.5003 90.5001 84.7003 92.5001 85.0003C97.2001 85.7003 100 89.2003 99.7001 94.0003C99.4001 98.1003 97.0001 100.7 93.9001 101.2C93.1001 101.3 92.3001 101.2 91.5001 101.2Z" fill="#2C9A29"/>
<path d="M101.2 154.9C102.4 152.4 104.4 151.2 107.1 151.2C111.2 151.2 115.5 154.3 116.3 157.9C116.9 160.6 115.8 163.9 113.7 165.3C112.8 161.1 110.5 158.1 106.9 155.9C105.2 154.8 103.3 154.5 101.3 155.1C101.3 155 101.2 155 101.2 154.9Z" fill="#2C9A29"/>
<path d="M99.2998 137.1C101.3 133.2 104.8 132.4 108.2 133.7C108.6 133.8 109 134.3 109.2 134.7C110.2 137.1 111.2 139.6 112.1 142C112.2 142.4 112.3 142.9 112.1 143.2C111.2 145.3 109.5 146.7 107.5 147.9C108.2 145 107.7 142.5 106 140.3C104.3 138.3 102.5 136.5 99.2998 137.1Z" fill="#2C9A29"/>
<path d="M82.2002 62.8004C84.2002 60.3004 86.8002 59.4004 89.8002 59.9004C93.3002 60.4004 95.1002 62.9004 95.0002 66.6004C94.9002 69.8004 91.4002 73.3004 88.0002 73.4004C90.0002 71.9004 90.6002 70.1004 90.5002 67.8004C90.4002 65.3004 87.9002 62.7004 85.4002 62.7004C84.4002 62.7004 83.4002 62.9004 82.3002 62.9004C82.3002 62.9004 82.3002 62.9004 82.2002 62.8004Z" fill="#2D9B2A"/>
<path d="M66.5 67.7998C71.2 64.2998 72.7 60.0998 65 56.3998C66.3 54.7998 68.4 54.3998 70.5 55.1998C74.5 56.5998 75.6 61.9998 73.2 64.9998C71.5 66.8998 69.2 67.5998 66.5 67.7998Z" fill="#2D9B2A"/>
<path d="M85.0002 49.8999C84.8002 44.3999 80.8002 42.6999 75.2002 45.3999C75.6002 44.6999 76.0002 43.9999 76.6002 43.4999C78.9002 41.4999 81.6002 40.7999 84.6002 41.2999C85.7002 41.4999 86.9002 41.6999 87.9002 42.1999C89.2002 42.7999 89.6002 43.9999 89.1002 45.1999C88.2002 47.1999 87.0002 48.7999 85.0002 49.8999Z" fill="#2D9B2A"/>
<path d="M99.3999 70.9997C102 69.5997 105 69.8997 107.1 71.7997C107.7 72.2997 107.9 72.7997 107.6 73.6997C106.9 75.8997 106.4 78.0997 105.9 80.2997C105.7 81.0997 105.3 81.5997 104.6 81.7997C103.5 82.0997 102.3 82.2997 101.1 82.3997C102.8 80.4997 103.7 78.4997 103.4 75.9997C103.2 73.4997 101.7 71.9997 99.3999 70.9997Z" fill="#2D9B2A"/>
<path d="M92.7002 51.8998C92.8002 51.6998 92.8002 51.4998 92.9002 51.3998C95.1002 48.9998 99.6002 48.5998 102.1 49.7998C103.6 50.4998 104.5 51.6998 104.4 53.3998C104.3 55.1998 103.4 56.4998 101.9 57.5998C102.4 53.5998 100.4 51.3998 96.5002 51.4998C95.1002 51.4998 93.9002 51.7998 92.7002 51.8998Z" fill="#2D9B2A"/>
<path d="M110.3 47.5004C111.5 45.0004 111 43.7004 108.4 43.1004C106.7 42.7004 104.9 42.8004 103.2 42.6004C104.9 41.7004 106.8 41.4004 108.8 41.7004C109.8 41.8004 110.8 42.1004 111.7 42.5004C113.4 43.3004 113.6 44.8004 112.2 46.1004C111.7 46.7004 111 47.0004 110.3 47.5004Z" fill="#319D2E"/>
<path d="M107.6 61.4999C107.6 58.2999 110.2 56.3999 114.4 56.7999C113.9 57.6999 113.6 58.5999 113 59.3999C112.8 59.6999 112.2 59.7999 111.8 59.7999C110.2 59.6999 108.8 60.1999 107.6 61.4999Z" fill="#319D2E"/>
<path d="M90.7998 35.0996C93.6998 33.7996 96.3998 33.5996 99.0998 34.2996C99.9998 34.4996 101 34.6996 101.2 35.8996C101.5 37.1996 100.7 37.8996 99.7998 38.4996C99.4998 38.6996 99.1998 38.8996 98.8998 38.9996C98.7998 38.8996 98.6998 38.7996 98.7998 38.7996C99.9998 36.7996 99.1998 35.2996 96.5998 35.0996C94.7998 34.9996 92.9998 35.0996 90.7998 35.0996Z" fill="#319D2E"/>
<path d="M105.5 29.1995C108.1 28.6995 110.4 29.0995 112.6 30.3995C113.4 30.8995 114.3 31.3995 114.2 32.5995C114.1 33.6995 113.1 34.0995 112.2 34.3995C111.8 34.5995 111.4 34.5995 110.9 34.5995C111 34.4995 111.2 34.3995 111.3 34.1995C112.5 33.1995 112.7 32.0995 111.3 31.2995C109.8 30.3995 108 29.9995 106.4 29.2995C106.2 29.2995 105.8 29.2995 105.5 29.1995Z" fill="#319D2E"/>
<path d="M77.8999 31.1998C78.9999 30.1998 80.6999 29.8998 82.2999 29.6998C83.6999 29.4998 85.1999 29.4998 86.5999 29.6998C87.2999 29.7998 87.8999 30.4998 88.5999 30.8998C88.1999 31.4998 87.6999 32.1998 87.0999 32.9998C86.6999 31.3998 85.8999 30.6998 84.3999 30.7998C82.1999 30.8998 79.9999 31.0998 77.8999 31.1998Z" fill="#319D2E"/>
<path d="M66.8999 35.9997C68.1999 35.5997 69.2999 35.0997 70.3999 34.9997C71.5999 34.7997 72.1999 35.6997 71.6999 36.7997C71.1999 37.7997 70.3999 38.5997 69.7999 39.3997C69.6999 39.2997 69.5999 39.2997 69.4999 39.1997C69.3999 38.3997 69.4999 37.4997 69.1999 36.9997C68.7999 36.4997 67.8999 36.3997 66.8999 35.9997Z" fill="#319D2E"/>
<path d="M117.7 37.0998C120.9 36.0998 123.7 37.0998 126.5 38.5998C126.1 39.0998 125.8 39.4998 125.6 39.6998C124.3 38.9998 123.1 38.1998 121.8 37.7998C120.5 37.3998 119 37.2998 117.7 37.0998Z" fill="#319D2E"/>
<path d="M104.7 117.9C104 118.4 103.4 118.8 102.8 119.2C102.7 119.2 102.6 119.1 102.5 119.1C103 117.7 103.5 116.4 104 115C104.1 115 104.3 115.1 104.4 115.1C104.5 116 104.6 117 104.7 117.9Z" fill="#319D2E"/>
<path d="M120.1 46.9004C119.6 49.2004 117.6 48.5004 116.3 49.0004C117 47.4004 118.4 47.0004 120.1 46.9004Z" fill="#319D2E"/>
<path d="M127.3 31.7002C128.8 31.9002 130.3 32.0002 131.9 32.2002C131.9 32.4002 131.9 32.6002 132 32.8002C131.6 32.9002 131.3 33.1002 130.9 33.0002C129.7 32.7002 128.5 32.2002 127.4 31.8002C127.3 31.7002 127.3 31.7002 127.3 31.7002Z" fill="#319D2E"/>
<path d="M82.4002 63.0004C82.3002 63.1004 82.2002 63.1004 82.2002 63.2004C82.2002 63.1004 82.3002 63.0004 82.3002 62.9004C82.3002 62.9004 82.3002 62.9004 82.4002 63.0004Z" fill="#2D9B2A"/>
<path d="M92.7 51.9004C92.6 52.0004 92.5 52.0004 92.5 52.1004V52.0004C92.5 52.0004 92.6 51.9004 92.7 51.9004Z" fill="#2D9B2A"/>
<path d="M101.3 155.1C101.2 155.1 101.2 155.2 101.1 155.2C101.1 155.1 101.1 155 101.1 154.9C101.2 155 101.3 155 101.3 155.1Z" fill="#2C9A29"/>
<path d="M64.5999 80.9004C64.4999 80.9004 64.4999 81.0004 64.3999 81.0004V80.9004C64.4999 81.0004 64.5999 81.0004 64.5999 80.9004Z" fill="#2B9A28"/>
<path d="M45.0999 83.4004C45.1999 83.5004 45.1999 83.6004 45.2999 83.7004C45.1999 83.7004 45.0999 83.6004 44.9999 83.6004C44.8999 83.6004 44.9999 83.5004 45.0999 83.4004Z" fill="#F9FCF9"/>
<path d="M122.2 190.1C122.1 190 122 189.9 121.9 189.9C122 189.9 122.2 189.9 122.3 189.9C122.3 190 122.2 190 122.2 190.1Z" fill="#FBFDFB"/>
<path d="M123.2 179L123.3 178.9V179H123.2Z" fill="#FBFDFB"/>
<path d="M29.7002 77.0996C29.7002 77.1996 29.7002 77.1996 29.7002 77.1996C29.7002 77.1996 29.8002 77.0996 29.7002 77.0996Z" fill="#F9FCF9"/>
</svg>
