<svg width="256" height="256" viewBox="0 0 256 256" fill="none" xmlns="http://www.w3.org/2000/svg">
<path d="M5.37729 109.162C5.41865 109.038 5.46001 108.914 5.46001 108.749C5.87358 99.9808 8.934 92.2057 14.6826 85.5886C20.3072 79.1369 27.3792 75.0839 35.7747 73.4296C37.429 73.0988 39.0833 73.0161 40.7789 72.8506C41.6061 72.7679 42.4745 72.7266 43.3017 72.7266C45.3282 72.8093 47.3547 72.9333 49.3812 73.3056C51.8626 73.7605 54.3027 74.4636 56.7427 75.3321C56.2878 75.7456 55.8742 76.1592 55.4607 76.5314C55.3779 76.5728 55.2125 76.5728 55.0884 76.5314C53.2274 75.8283 51.325 75.3734 49.3398 75.0839C48.0164 74.8771 46.693 74.7944 45.3695 74.7117C44.0048 74.629 42.5986 74.5463 41.2338 74.5876C36.8913 74.7531 32.6729 75.6629 28.7027 77.524C27.4619 78.103 26.1799 78.7233 25.27 79.84C24.8151 80.3776 24.8565 80.5017 25.5182 80.6671C25.725 80.7085 25.9317 80.7498 26.1385 80.8325C27.4619 81.2048 27.9996 82.0319 27.8342 83.3967C27.6274 84.8855 26.9657 86.0435 25.8077 86.9534C25.2287 87.4083 24.6497 87.9046 24.1947 88.4422C23.8225 88.8972 23.533 89.5175 23.3676 90.0965C23.1195 90.8823 23.4917 91.4199 24.1947 91.7922C24.6083 91.9989 25.0219 92.2471 25.3941 92.5366C26.3867 93.281 26.5107 94.4804 26.0558 95.597C25.849 96.0933 25.4768 96.5482 25.146 97.0031C24.567 97.7062 23.988 98.4093 23.7398 99.3605C23.6157 99.7741 23.6985 100.105 24.0293 100.353C24.2361 100.518 24.4429 100.643 24.6497 100.767C26.5521 101.883 27.0484 103.579 26.4694 105.605C26.304 106.267 25.8904 106.887 25.5182 107.508C24.8978 108.5 24.6497 109.493 24.9805 110.61C25.2287 111.437 25.7663 112.016 26.6762 112.264C27.5447 112.512 28.4132 112.802 29.1989 113.215C30.9359 114.125 31.5563 115.738 31.0187 117.599C30.7705 118.385 30.4397 119.171 30.2329 119.956C29.7366 121.9 30.9359 123.968 32.9211 124.795C34.0377 125.25 35.1957 125.333 36.3537 125.291C39.166 125.25 40.7789 127.318 40.3653 129.841C40.0345 131.702 41.4406 133.48 43.0949 134.1C44.0461 134.473 44.8319 134.183 45.6177 133.77C46.8998 133.108 48.2232 133.149 49.5052 133.521C50.746 133.894 51.6145 134.803 52.0694 136.044C52.7311 137.823 54.344 138.319 55.8742 137.161C56.081 136.995 56.2878 136.789 56.4946 136.623C56.5359 136.665 56.5773 136.665 56.6186 136.665C57.6112 137.45 58.6038 138.277 59.6377 139.105C58.397 140.263 57.0322 140.883 55.2952 140.552C55.6674 141.09 56.4532 141.297 57.2804 141.131C58.4384 140.883 59.4309 140.387 60.2581 139.518C61.3334 140.18 62.4086 140.883 63.5666 141.586C62.2432 142.33 61.0025 143.075 59.7618 143.695C56.4119 145.391 52.8552 146.549 49.133 147.169C46.5689 147.624 44.0048 147.79 41.4406 147.624C31.5563 147.128 23.1195 143.406 16.1301 136.375C11.0846 131.329 7.85872 125.25 6.32851 118.302C5.95629 116.689 5.79086 115.035 5.54272 113.381C5.46001 112.719 5.41865 112.057 5.33594 111.437C5.37729 110.775 5.37729 109.989 5.37729 109.162ZM50.4151 142.537C50.4565 142.579 50.4978 142.579 50.4978 142.62C50.5392 143.199 50.3324 143.447 49.6707 143.571C48.7608 143.778 47.851 143.695 46.9825 143.364C46.5275 143.199 46.114 142.951 46.0726 142.372C45.2041 142.868 45.1628 143.53 45.9899 144.067C46.114 144.15 46.1967 144.192 46.3208 144.274C47.6442 144.812 48.9676 144.895 50.3324 144.522C50.7873 144.398 51.2836 144.192 51.325 143.613C51.3663 143.034 50.9114 142.785 50.4978 142.537C50.5392 142.537 50.4978 142.537 50.4151 142.537ZM12.2839 95.8865C12.408 95.8451 12.5734 95.8451 12.6975 95.8038C12.987 95.7624 13.1938 95.8865 13.1938 96.2174C13.1524 96.7136 13.1524 97.2099 12.987 97.6649C12.8629 98.1198 12.6148 98.5333 12.408 98.9883C12.4493 98.9883 12.4907 98.9883 12.5321 98.9883C13.4006 97.9543 14.0209 96.8377 13.9796 95.4316C13.9382 95.0594 13.6073 94.8526 13.2351 95.1007C12.9456 95.2661 12.6148 95.597 12.2839 95.8865C12.2839 95.9279 12.2839 95.9279 12.2839 95.9279V95.8865ZM18.5702 98.5747C18.6115 98.5747 18.6529 98.6161 18.6943 98.6161C18.6529 98.5747 18.6529 98.5333 18.6115 98.492C17.9912 97.7889 17.3295 97.6649 16.585 98.0784C15.4271 98.7401 14.4345 100.643 14.5999 102.007C14.6826 102.504 14.8067 102.959 15.3443 103.372C15.0962 102.173 15.4684 101.18 15.9233 100.188C16.461 98.9883 17.2468 98.5333 18.5702 98.5747ZM50.9527 138.029C50.7873 138.071 50.6219 138.112 50.4978 138.153C49.6293 138.402 48.7608 138.608 47.8096 138.443C46.5689 138.195 45.4523 137.781 44.6251 136.706C44.4597 137.409 44.5424 137.947 44.8733 138.484C45.8245 140.014 48.6367 140.552 50.0842 139.435C50.4978 139.063 50.87 138.65 50.9527 138.029C50.9527 138.029 50.9941 138.029 51.0355 138.029V137.988C50.9527 137.988 50.9527 138.029 50.9527 138.029ZM38.4629 131.743C37.2222 131.536 36.1883 130.875 35.2784 130.089C34.3272 129.262 33.5414 128.352 33.5001 126.946C32.0526 128.31 32.3834 130.337 33.7482 131.826C34.8235 132.942 37.1808 133.108 38.4629 131.743ZM28.3304 130.213C26.6348 130.378 25.849 129.22 25.1046 128.021C24.3188 126.78 24.2361 125.457 24.3602 124.051C23.4917 124.299 22.7472 125.333 22.6645 126.201C22.4577 127.773 23.9052 130.006 25.4355 130.544C26.428 130.957 27.4206 130.875 28.3304 130.213ZM19.1078 117.475C17.9085 116.524 17.4535 115.242 17.2054 113.877C16.9573 112.512 16.9159 111.147 17.8671 109.989C16.461 110.155 15.0548 111.892 15.303 114.001C15.5098 115.986 17.0813 117.723 19.1078 117.475ZM41.2338 138.774C39.8691 139.311 38.6283 139.229 37.3876 138.815C36.1469 138.402 35.0303 137.781 34.4926 136.458C33.9136 137.409 34.9476 139.518 36.3537 140.304C38.3802 141.462 40.3653 140.469 41.2338 138.774ZM29.0335 140.014C29.6952 140.014 30.3156 139.642 30.2742 139.063C30.2742 138.526 30.2329 137.947 29.9847 137.492C29.3644 136.127 28.2891 135.176 26.8829 134.597C26.5107 134.431 26.0972 134.39 25.6836 134.39C24.7737 134.349 24.0707 135.424 24.6083 136.334C24.7324 135.465 25.146 135.176 25.9731 135.465C26.1385 135.507 26.304 135.589 26.428 135.631C27.586 136.251 28.4545 137.202 28.8681 138.443C29.0335 138.898 28.9922 139.435 29.0335 140.014ZM16.9159 127.07C17.2881 127.111 17.5363 127.194 17.7844 127.152C18.5702 127.028 18.8183 126.408 18.9424 125.788C19.2319 123.802 18.4461 122.065 16.6264 120.99C15.5511 120.37 14.5172 120.99 14.4758 122.272C15.1789 121.652 15.6338 121.652 16.2956 122.355C17.164 123.265 17.8258 124.257 17.743 125.664C17.6603 126.16 17.5776 126.656 16.9159 127.07ZM25.8904 114.042C24.567 114.414 23.6157 116.358 24.0707 117.682C24.691 119.625 26.8829 120.659 28.2477 119.956C27.0897 119.419 26.304 118.592 25.8077 117.475C25.27 116.358 25.27 115.2 25.8904 114.042ZM22.5405 101.759C21.672 102.131 20.9689 102.752 20.4726 103.538C19.8936 104.489 19.7282 105.44 20.3485 106.433C20.9689 107.425 21.9615 107.715 23.1608 107.673C21.9201 107.301 21.4238 106.226 21.3825 104.944C21.3411 103.786 21.796 102.71 22.5405 101.759ZM17.8258 94.8526C17.4535 94.3976 17.164 93.86 17.2881 93.281C17.4949 92.4125 17.8671 91.5854 18.4461 90.8409C19.0665 90.0552 19.8523 89.4762 20.8448 89.1039C20.2245 88.8144 19.7282 88.9385 19.2733 89.1867C17.743 89.9311 16.7918 91.1718 16.3369 92.7847C16.2542 93.0742 16.2542 93.4051 16.2542 93.6946C16.3783 94.5631 16.9573 94.9766 17.8258 94.8526ZM10.5469 112.016C10.5883 112.057 10.6296 112.098 10.671 112.14C11.0019 111.892 11.3741 111.685 11.6636 111.395C12.4907 110.486 12.9456 109.369 13.1111 108.128C13.1938 107.384 13.1938 106.639 13.1111 105.895C13.0697 105.399 12.6148 105.233 12.2426 105.357C11.7049 105.523 10.9191 106.433 10.8364 107.053C11.7876 106.722 12.2839 107.053 12.3666 108.045C12.408 108.335 12.3666 108.666 12.3253 108.997C12.0771 110.196 11.5395 111.23 10.5469 112.016ZM23.409 92.9501C21.7547 92.8674 20.2245 94.7699 20.5967 96.3414C20.8035 97.2926 21.8374 97.8716 22.9954 97.7476C21.0516 96.4655 21.9201 94.2736 23.409 92.9501ZM25.6422 82.7763C24.112 83.1899 23.1195 84.0997 22.4577 85.3405C22.3337 85.5472 22.2923 85.8367 22.3337 86.0435C22.375 86.7466 23.2022 87.2015 23.6571 86.9947C23.6571 86.6225 23.5744 86.2917 23.6571 86.0022C24.0293 84.8028 24.7324 83.7689 25.6422 82.7763ZM17.04 132.239C18.2807 132.198 19.6041 133.645 19.5214 135.217C20.1004 135.093 20.3485 134.845 20.3899 134.307C20.4726 133.149 19.356 131.702 18.198 131.536C17.5776 131.412 17.164 131.66 17.04 132.239ZM35.1957 143.819C34.9476 142.827 34.0377 142.248 32.6729 142.33C32.1766 142.33 31.8458 142.661 31.8044 143.075C33.0865 142.703 34.1204 143.323 35.1957 143.819ZM43.1363 144.895C43.4258 144.605 43.3017 144.357 43.0949 144.15C42.5986 143.654 41.2752 143.406 40.6135 143.737C40.3653 143.861 40.1586 144.067 40.324 144.357C41.3579 144.233 42.3091 144.109 43.1363 144.895ZM10.9605 118.302C11.4568 118.302 11.6636 118.054 11.7049 117.64C11.829 116.979 11.4981 116.193 10.9605 115.903C10.671 115.738 10.3815 115.738 10.1334 116.027C11.0432 116.565 11.1673 117.351 10.9605 118.302ZM19.3973 86.2503C18.9424 85.8367 19.2733 85.5886 19.3973 85.3405C19.5628 85.0923 19.7695 84.8855 19.935 84.6374C19.8936 84.596 19.8523 84.596 19.8109 84.5547C19.48 84.8855 19.1078 85.2164 18.8183 85.63C18.6529 85.8367 18.6529 86.1676 18.5702 86.4157C18.8597 86.333 19.1492 86.2917 19.3973 86.2503Z" fill="#2A9927"/>
<path d="M130.562 132.241C130.562 122.77 130.562 113.341 130.562 103.953C130.604 103.953 130.687 103.911 130.728 103.911C134.615 103.911 138.462 103.829 142.349 103.994C148.429 104.284 153.061 108.088 154.467 114.168C154.88 115.988 155.004 117.849 154.839 119.71C154.55 122.894 153.516 125.748 151.324 128.105C149.463 130.132 147.105 131.331 144.417 131.91C142.887 132.241 141.357 132.241 139.826 132.241C136.931 132.241 134.036 132.241 131.141 132.241C130.935 132.241 130.769 132.241 130.562 132.241ZM136.022 108.833C136.022 114.995 136.022 121.199 136.022 127.361C137.965 127.361 139.826 127.443 141.729 127.319C142.639 127.278 143.549 127.03 144.376 126.699C147.643 125.293 148.884 122.481 149.173 119.172C149.297 118.014 149.173 116.773 148.966 115.615C148.387 112.265 146.32 109.288 142.308 108.916C140.24 108.626 138.131 108.833 136.022 108.833Z" fill="white"/>
<path d="M211.998 123.509C211.915 125.495 213.693 127.852 215.637 128.431C218.532 129.299 221.014 128.389 222.42 125.908C223.95 126.322 225.439 126.735 227.01 127.19C226.886 127.397 226.804 127.562 226.721 127.728C225.025 130.499 222.585 132.029 219.401 132.484C218.573 132.608 217.746 132.732 216.919 132.691C212.535 132.442 208.234 130.292 206.621 124.998C206.29 123.84 206.125 122.641 206.125 121.442C206.166 116.685 209.888 112.095 214.562 111.268C218.119 110.606 221.51 111.061 224.446 113.46C226.679 115.279 227.755 117.678 228.086 120.49C228.168 121.317 228.168 122.145 228.21 123.013C228.251 123.468 228.086 123.633 227.589 123.633C222.585 123.633 217.581 123.633 212.618 123.633C212.411 123.509 212.246 123.509 211.998 123.509ZM211.915 119.994C215.472 119.994 219.07 119.994 222.626 119.994C222.792 117.554 220.31 114.866 217.912 114.824C214.396 114.783 211.75 117.016 211.915 119.994Z" fill="white"/>
<path d="M96.6938 123.515C91.276 123.515 85.941 123.515 80.4405 123.515C80.5645 124.011 80.6059 124.508 80.73 124.921C81.4744 127.03 83.0046 128.354 85.1965 128.685C87.2644 129.016 89.7458 128.188 90.8211 126.121C90.8624 126.038 91.0692 125.914 91.1519 125.955C92.5994 126.327 94.0883 126.741 95.5772 127.154C95.0809 128.188 94.4192 129.016 93.6747 129.76C92.0204 131.332 90.0767 132.2 87.802 132.489C87.099 132.572 86.3545 132.696 85.6515 132.655C80.2751 132.407 75.8085 129.429 74.8986 123.515C73.9474 117.436 77.7523 111.728 84.328 110.984C87.8847 110.57 91.1106 111.397 93.7574 114.003C95.4117 115.657 96.2389 117.684 96.6111 119.958C96.8179 121.158 96.8179 122.274 96.6938 123.515ZM91.1933 120C91.1106 118.304 90.4489 116.898 89.0841 115.864C87.7193 114.83 86.1891 114.623 84.5348 114.954C81.888 115.492 80.2337 118.18 80.4818 120C84.0385 120 87.6366 120 91.1933 120Z" fill="white"/>
<path d="M158.358 111.312C160.136 111.312 161.873 111.312 163.693 111.312C163.693 111.519 163.693 111.685 163.693 111.85C163.693 115.944 163.651 120.039 163.734 124.133C163.734 125.084 163.982 126.036 164.603 126.821C165.513 128.021 166.753 128.269 168.201 127.979C170.227 127.566 171.592 126.325 172.543 124.547C172.626 124.34 172.667 124.092 172.667 123.885C172.667 119.873 172.667 115.903 172.667 111.891C172.667 111.726 172.667 111.519 172.667 111.312C174.487 111.312 176.224 111.312 178.044 111.312C178.044 111.519 178.044 111.685 178.044 111.891C178.044 116.689 178.044 121.486 178.044 126.284C178.044 127.194 178.375 127.566 179.284 127.69C179.367 127.69 179.408 127.69 179.491 127.731C179.491 129.22 179.491 130.75 179.491 132.281C178.25 132.487 176.968 132.694 175.686 132.446C174.528 132.198 173.66 131.081 173.536 129.923C173.494 129.468 173.453 129.013 173.412 128.517C173.246 128.682 173.122 128.848 172.998 129.013C171.427 131.04 169.317 132.156 166.795 132.529C165.388 132.735 163.941 132.777 162.535 132.322C160.384 131.619 159.268 129.965 158.771 127.897C158.523 126.904 158.399 125.912 158.358 124.919C158.316 120.494 158.358 116.069 158.316 111.643C158.316 111.519 158.358 111.437 158.358 111.312Z" fill="white"/>
<path d="M197.522 132.197C197.522 131.99 197.522 131.825 197.522 131.66C197.522 127.979 197.564 124.298 197.481 120.617C197.481 119.583 197.274 118.508 197.026 117.515C196.737 116.399 195.661 115.82 194.545 115.778C191.98 115.654 190.409 117.143 189.168 119.128C188.92 119.542 188.796 120.162 188.796 120.659C188.755 124.339 188.796 127.979 188.796 131.66C188.796 131.825 188.796 132.032 188.796 132.239C187.018 132.239 185.239 132.239 183.461 132.239C183.461 125.291 183.461 118.343 183.461 111.395C185.074 111.395 186.645 111.395 188.3 111.395C188.3 112.594 188.3 113.835 188.3 115.117C188.382 115.034 188.424 114.993 188.465 114.993C189.995 112.677 192.187 111.477 194.917 111.147C196.323 110.981 197.729 110.94 199.094 111.395C200.665 111.932 201.617 113.132 202.237 114.62C202.692 115.778 202.899 117.019 202.899 118.26C202.94 122.851 202.899 127.4 202.899 131.99C202.899 132.073 202.899 132.156 202.857 132.239C201.079 132.197 199.342 132.197 197.522 132.197Z" fill="white"/>
<path d="M53.1016 103.867C54.9213 103.867 56.6996 103.867 58.5193 103.867C58.5193 111.684 58.5193 119.459 58.5193 127.358C63.3995 127.358 68.1969 127.358 72.9943 127.358C72.9943 129.012 72.9943 130.584 72.9943 132.197C66.3772 132.197 59.76 132.197 53.1016 132.197C53.1016 122.767 53.1016 113.338 53.1016 103.867Z" fill="white"/>
<path d="M247.852 113.508C247.149 114.583 246.404 115.658 245.701 116.734C245.288 116.486 244.874 116.279 244.461 116.072C242.558 115.038 240.573 114.542 238.423 114.749C237.389 114.831 236.355 115.162 235.941 116.32C235.569 117.354 236.024 118.429 237.058 118.76C238.133 119.132 239.25 119.339 240.325 119.711C241.979 120.249 243.634 120.787 245.246 121.407C245.867 121.655 246.446 122.027 246.942 122.441C248.348 123.64 248.638 125.253 248.39 126.99C248.059 129.513 246.446 131.043 244.171 131.912C242.682 132.491 241.069 132.78 239.498 132.697C236.272 132.532 233.17 131.912 230.358 130.216C230.234 130.133 230.11 130.051 229.986 129.968C229.944 129.927 229.903 129.885 229.82 129.844C230.523 128.644 231.226 127.445 231.971 126.204C232.219 126.37 232.426 126.494 232.633 126.618C234.494 127.735 236.437 128.479 238.629 128.727C239.622 128.851 240.573 128.769 241.524 128.479C242.6 128.19 243.261 127.362 243.261 126.411C243.261 125.667 242.848 125.088 242.186 124.881C240.697 124.343 239.126 123.888 237.595 123.475C235.776 122.979 233.915 122.606 232.426 121.407C230.937 120.29 230.565 118.719 230.813 116.94C231.309 113.632 234.121 111.523 237.347 111.068C241.069 110.571 244.502 111.523 247.687 113.425C247.769 113.425 247.811 113.466 247.852 113.508Z" fill="white"/>
<path d="M116.38 113.508C115.677 114.583 114.933 115.658 114.229 116.734C113.692 116.444 113.154 116.155 112.617 115.865C110.838 114.955 108.936 114.583 106.951 114.707C106.123 114.749 104.717 115.369 104.511 116.279C104.18 117.478 104.593 118.429 105.751 118.801C107.447 119.339 109.184 119.753 110.88 120.29C111.996 120.663 113.113 121.117 114.188 121.572C115.222 122.027 116.09 122.73 116.545 123.806C116.752 124.302 116.876 124.881 116.918 125.419C116.959 126.204 116.959 127.032 116.752 127.776C116.256 129.802 114.808 131.043 112.947 131.788C111.004 132.573 108.977 132.697 106.909 132.573C104.883 132.449 102.939 131.953 101.037 131.25C100.085 130.919 99.2168 130.381 98.2656 129.927C99.0514 128.644 99.7545 127.445 100.499 126.204C100.664 126.287 100.788 126.37 100.912 126.453C102.443 127.486 104.18 128.19 105.999 128.603C107.24 128.851 108.522 128.975 109.804 128.603C110.135 128.52 110.507 128.396 110.797 128.19C111.624 127.693 111.913 126.949 111.789 126.039C111.665 125.336 111.128 124.964 110.549 124.757C109.556 124.385 108.522 124.095 107.488 123.764C105.999 123.309 104.511 122.937 103.063 122.482C101.988 122.151 100.954 121.614 100.292 120.663C99.0514 118.926 99.0928 117.065 99.9613 115.203C101.161 112.639 103.311 111.44 106.041 111.068C109.763 110.571 113.196 111.523 116.38 113.425C116.339 113.466 116.339 113.466 116.38 113.508Z" fill="white"/>
<path d="M42.4323 163.341C43.0526 166.65 43.7143 169.958 44.3347 173.267H44.376C44.5001 172.026 44.5828 170.786 44.7069 169.586C44.831 168.263 45.0377 166.981 45.0791 165.657C45.2445 162.804 46.0717 160.157 47.2297 157.634C47.6432 156.724 48.1809 155.938 48.6772 155.029C46.6093 155.07 44.4587 154.987 42.4323 154.201C43.3008 153.995 44.2106 153.829 45.0377 153.54C45.8649 153.25 46.692 152.878 47.4778 152.423C44.9964 151.927 42.4736 151.555 39.9922 150.603C40.8193 150.562 41.5224 150.479 42.2255 150.438C43.4662 150.355 44.7069 150.355 45.9476 150.231C48.3463 149.983 50.745 149.652 53.061 148.825C53.7227 148.577 54.4258 148.494 55.1289 148.37C55.4597 148.287 55.6251 148.494 55.7492 148.742C56.1214 149.445 56.1214 150.19 56.0387 150.893C55.7906 152.547 54.798 153.788 53.3505 154.45C50.2901 155.856 48.8839 158.42 48.2222 161.48C47.7673 163.589 47.3951 165.699 47.0229 167.849C46.7334 169.669 46.4852 171.53 46.2371 173.35C45.9476 175.418 45.6995 177.485 45.4513 179.553C45.2859 180.959 45.1618 182.366 45.0377 183.772C44.8723 185.798 44.5415 187.783 43.6316 189.603C43.3835 190.058 43.3008 190.099 42.9285 189.686C42.5977 189.314 42.4323 188.941 42.4323 188.445C42.4323 187.246 42.3909 186.088 42.3495 184.888C42.3082 184.103 42.2668 183.358 42.2668 182.572C42.2255 181.29 42.1841 180.05 42.1428 178.768C42.1014 175.418 42.06 172.026 42.06 168.676C42.06 166.939 42.1841 165.202 42.2668 163.465C42.2668 163.424 42.3082 163.341 42.3082 163.3C42.3909 163.341 42.3909 163.341 42.4323 163.341Z" fill="white"/>
<path d="M41.1907 187.739C40.9425 186.415 40.6944 185.092 40.4462 183.727C40.1981 182.238 39.9499 180.75 39.7432 179.219C39.5777 178.103 39.495 176.986 39.3296 175.869C38.9987 173.677 38.7092 171.486 38.2957 169.294C38.0475 167.97 37.7167 166.647 37.4272 165.323C37.0963 163.669 36.7654 162.056 36.4346 160.402C36.3105 159.782 36.0624 159.161 35.8556 158.582C35.1525 156.597 33.8705 155.108 32.0507 154.074C31.3063 153.619 30.6033 153.082 30.0243 152.461C29.1971 151.593 28.7422 150.518 28.7422 149.277C28.7422 149.07 28.7835 148.822 28.8663 148.615C29.1144 147.664 29.2798 147.498 30.231 147.581C30.8928 147.664 31.5131 147.829 32.1335 148.077C32.7538 148.326 33.0433 148.822 32.8779 149.484C32.6297 150.6 32.9606 151.593 33.6223 152.42C34.2013 153.123 34.9044 153.785 35.5661 154.405C36.1037 154.943 36.7241 155.439 37.3031 155.977C38.5024 157.217 39.2882 158.706 39.495 160.443C39.6191 161.601 39.7432 162.759 39.7845 163.917C39.8672 165.613 39.9086 167.308 39.9913 169.004C40.074 170.741 40.2394 172.478 40.4049 174.256C40.5289 175.745 40.6944 177.193 40.7771 178.682C40.9012 180.336 40.9839 181.99 41.0666 183.645C41.1493 185.051 41.2734 186.415 41.3974 187.78C41.2734 187.739 41.232 187.739 41.1907 187.739Z" fill="white"/>
<path d="M150.29 103.127C150.579 102.961 150.827 102.796 151.034 102.63C151.076 102.63 151.117 102.63 151.158 102.672C152.44 104.615 154.301 105.236 156.493 105.112C158.313 105.029 160.174 104.202 160.794 102.093C160.918 101.72 160.96 101.348 160.96 100.976C161.001 100.025 160.96 99.1149 160.96 98.081C160.836 98.2051 160.753 98.2878 160.67 98.3705C159.347 100.066 157.61 100.976 155.418 100.769C153.433 100.562 151.944 99.4458 150.91 97.7501C148.966 94.5656 149.959 90.3472 152.647 88.4448C153.888 87.5763 155.211 87.2868 156.741 87.4936C158.354 87.7004 159.43 88.6102 160.464 89.7269C160.629 89.8923 160.794 90.0991 161.043 90.3886C161.043 89.4374 161.043 88.5689 161.043 87.659C161.415 87.659 161.746 87.659 162.159 87.659C162.159 87.8244 162.201 87.9899 162.201 88.1139C162.201 92.3737 162.201 96.6335 162.201 100.893C162.201 103.664 160.381 105.443 157.941 105.939C156.99 106.146 155.956 106.228 154.963 106.146C152.937 105.856 151.282 104.988 150.29 103.127ZM160.918 94.1107C160.918 93.7385 160.877 93.3249 160.918 92.9527C161.084 91.8361 160.588 90.9676 159.843 90.1818C157.61 87.7831 154.012 87.7004 152.109 90.6367C151.075 92.2083 150.745 93.9453 151.365 95.8063C152.523 99.3217 156.659 101.141 159.843 98.0396C160.546 97.3366 161.001 96.5508 160.918 95.4755C160.877 95.0619 160.918 94.607 160.918 94.1107Z" fill="white"/>
<path d="M124.362 82.3203C124.734 82.3203 125.065 82.3203 125.355 82.3203C125.437 82.3203 125.479 82.3203 125.603 82.3617C125.603 82.5685 125.603 82.7752 125.603 82.9407C125.603 88.1103 125.603 93.3213 125.603 98.4909C125.603 98.8631 125.603 99.1526 125.934 99.4421C126.14 99.6075 126.016 100.145 126.058 100.517C124.982 100.641 124.445 100.187 124.445 99.1526C124.445 98.8218 124.445 98.4909 124.445 98.2428C123.742 98.8218 123.121 99.5248 122.336 99.9798C119.606 101.634 116.463 100.641 114.685 98.2428C113.94 97.2502 113.568 96.1336 113.361 94.9342C112.948 92.4941 114.354 89.3097 116.587 88.0689C118.903 86.7869 121.757 87.2832 123.576 89.351C123.824 89.6405 124.073 89.9714 124.362 90.3022C124.362 87.5727 124.362 84.9672 124.362 82.3203ZM124.403 94.1484C124.403 93.7349 124.362 93.3213 124.403 92.9077C124.569 91.8324 124.031 91.0466 123.411 90.3436C123.287 90.1781 123.121 90.0541 122.997 89.93C121.302 88.3998 119.027 88.0276 117.207 89.1442C115.388 90.2609 114.064 93.1145 114.767 95.5959C115.718 99.0699 119.689 101.345 123.163 98.2841C123.99 97.5811 124.486 96.7126 124.362 95.5959C124.362 95.0996 124.403 94.6034 124.403 94.1484Z" fill="white"/>
<path d="M93.5909 98.1187C93.5909 98.9045 93.5909 99.6903 93.5909 100.517C93.2187 100.517 92.8878 100.517 92.5156 100.517C92.5156 94.4379 92.5156 88.3998 92.5156 82.3203C92.8878 82.3203 93.2601 82.3203 93.715 82.3203C93.715 84.9672 93.715 87.614 93.715 90.1368C94.5008 89.4751 95.2038 88.6893 96.0723 88.1103C97.1476 87.3659 98.347 87.2004 99.629 87.4486C102.317 87.9862 104.054 89.8473 104.551 92.5769C104.964 94.8101 104.592 96.8366 103.103 98.615C102.069 99.8557 100.787 100.6 99.1741 100.766C96.8995 101.014 95.1625 100.062 93.7977 98.2841C93.7563 98.2428 93.715 98.1601 93.6736 98.0773C93.6323 98.1187 93.6323 98.1187 93.5909 98.1187ZM93.715 94.1484C93.715 94.7688 93.6736 95.3891 93.715 96.0095C93.7563 96.4231 93.8391 96.8366 94.0045 97.1675C94.9557 98.9458 97.8507 100.393 100.249 99.2353C103.268 97.7878 104.344 93.9416 102.565 90.8812C100.994 88.193 97.7266 87.614 95.3693 89.6405C94.294 90.5917 93.4255 91.667 93.6736 93.2799C93.7563 93.5694 93.715 93.8589 93.715 94.1484Z" fill="white"/>
<path d="M67.6606 96.0508C68.0328 96.2163 68.3223 96.3817 68.7773 96.5885C68.4051 97.1261 68.0742 97.7051 67.6606 98.16C66.2959 99.6903 64.5175 100.393 62.491 100.641C58.2312 101.138 55.1708 97.8292 54.0955 95.0996C53.5165 93.6108 53.227 92.0806 53.4338 90.5504C53.8474 87.0764 56.0807 83.561 60.2577 82.8166C63.2354 82.3203 65.8823 82.982 67.7847 85.5875C67.9915 85.877 68.1569 86.1665 68.3637 86.4974C67.9915 86.7042 67.702 86.8696 67.4125 87.035C66.8748 86.4147 66.4199 85.7529 65.7996 85.2153C64.3107 83.9746 62.5737 83.6024 60.6713 83.8919C57.6109 84.3882 55.9152 86.3319 55.0467 89.1029C54.7986 89.93 54.6332 90.8399 54.6332 91.7083C54.6332 95.1823 57.1146 98.5323 60.4232 99.318C62.6151 99.8557 65.6755 99.0285 67.2884 96.5471C67.4125 96.5058 67.4952 96.299 67.6606 96.0508Z" fill="white"/>
<path d="M140.533 97.6262C139.871 99.0324 138.796 99.8595 137.472 100.397C134.122 101.721 130.69 99.9836 129.325 96.9645C127.629 93.201 129.532 88.7758 133.212 87.6592C137.183 86.4598 140.698 89.1067 141.36 92.8288C141.442 93.3665 141.442 93.9455 141.484 94.5658C137.638 94.5658 133.874 94.5658 130.028 94.5658C130.028 95.517 130.317 96.3028 130.731 97.0886C131.599 98.7015 132.964 99.6941 134.743 99.8595C136.48 99.9836 138.051 99.4046 139.085 97.8744C139.416 97.4194 139.664 97.3367 140.119 97.5435C140.243 97.5435 140.367 97.5849 140.533 97.6262ZM140.202 93.5319C140.078 90.0579 137.059 88.0314 134.453 88.3623C131.93 88.6931 129.862 91.0918 130.028 93.5319C133.419 93.5319 136.81 93.5319 140.202 93.5319Z" fill="white"/>
<path d="M177.917 94.0627C177.835 96.5441 176.842 98.5293 174.774 99.8527C171.796 101.796 168.116 100.804 166.255 97.9089C164.311 94.8485 164.849 91.3331 167.33 89.0172C170.638 85.9154 175.849 87.2388 177.421 91.5813C177.669 92.3671 177.752 93.2356 177.917 94.0627ZM176.594 94.0627C176.594 92.9874 176.304 91.9535 175.767 91.0436C174.071 88.19 170.68 87.5283 168.322 89.6789C165.965 91.7881 165.634 95.3861 167.785 97.9089C169.605 100.018 172.582 100.266 174.567 98.5293C175.891 97.3713 176.553 95.8411 176.594 94.0627Z" fill="white"/>
<path d="M87.2616 87.5703C87.6752 87.5703 88.0474 87.5703 88.461 87.5703C88.461 87.7771 88.461 87.9425 88.461 88.108C88.461 91.5819 88.461 95.0973 88.461 98.5713C88.461 98.9021 88.4196 99.233 88.8332 99.3984C88.9159 99.4398 88.9159 99.6052 88.9573 99.6879C88.9573 99.9361 88.9573 100.226 88.9573 100.474C87.9234 100.68 87.3857 100.226 87.3857 99.233C87.3857 98.6954 87.3857 98.1577 87.3857 97.496C87.2203 97.7441 87.1376 97.8682 87.0135 98.0336C85.8969 99.6052 84.408 100.556 82.4642 100.763C80.0242 101.011 78.5353 99.9774 77.9563 97.6201C77.7909 96.917 77.7082 96.2139 77.6668 95.5109C77.6255 93.0294 77.6668 90.5894 77.6668 88.108C77.6668 87.9425 77.6668 87.7771 77.6668 87.6117C78.0804 87.6117 78.494 87.6117 78.9075 87.6117C78.9075 87.9839 78.9075 88.3561 78.9075 88.7283C78.9489 91.2924 78.9489 93.8566 78.9902 96.4207C79.0316 98.8194 81.1408 100.267 83.4982 99.5638C85.3179 98.9849 86.5586 97.7855 87.2203 96.0071C87.303 95.8004 87.303 95.5936 87.303 95.3868C87.2617 92.7399 87.2616 90.1758 87.2616 87.5703Z" fill="white"/>
<path d="M187.718 90.0996C187.098 90.0996 186.519 90.0996 185.898 90.0996C185.898 89.7274 185.898 89.4379 185.898 89.0657C186.519 89.0657 187.056 89.0657 187.718 89.0657C187.718 88.1558 187.718 87.2873 187.718 86.4188C187.76 85.4263 188.049 84.4751 188.545 83.6066C189.703 81.5387 192.681 81.7869 193.963 82.9035C193.839 83.1516 193.674 83.4411 193.549 83.772C192.929 83.3584 192.226 83.193 191.482 83.193C190.613 83.193 189.993 83.6066 189.579 84.3096C189.083 85.0954 189 86.0053 188.959 86.9151C188.917 87.6182 188.959 88.3213 188.959 89.0243C190.2 89.0243 191.399 89.0243 192.64 89.0243C192.64 89.3966 192.64 89.686 192.64 90.0583C191.44 90.0583 190.241 90.0583 189 90.0583C189 93.5323 189 97.0062 189 100.48C188.587 100.48 188.173 100.48 187.76 100.48C187.718 97.089 187.718 93.615 187.718 90.0996Z" fill="white"/>
<path d="M75.806 99.3571C75.8887 99.688 75.9714 99.9775 76.0541 100.308C75.1443 100.681 74.2344 100.763 73.2832 100.639C72.332 100.515 71.6289 99.6053 71.6289 98.5713C71.6289 93.1949 71.6289 87.8185 71.6289 82.4834C71.6289 82.4421 71.6703 82.4421 71.6703 82.3594C72.0425 82.3594 72.456 82.3594 72.8696 82.3594C72.8696 82.5248 72.8696 82.6902 72.8696 82.897C72.8696 87.8599 72.8696 92.8227 72.8696 97.8269C72.8696 99.233 73.7381 99.8948 75.1029 99.5225C75.3097 99.3985 75.5578 99.3985 75.806 99.3571Z" fill="white"/>
<path d="M180.977 82.3203C181.431 82.3203 181.804 82.3203 182.259 82.3203C182.259 82.5271 182.259 82.6925 182.259 82.858C182.259 87.8208 182.259 92.7836 182.259 97.7878C182.259 99.194 183.127 99.8557 184.492 99.4835C184.699 99.4421 184.905 99.4008 185.195 99.3594C185.278 99.6489 185.36 99.9798 185.443 100.311C184.533 100.683 183.623 100.766 182.714 100.641C181.721 100.517 181.018 99.5662 181.018 98.4082C181.018 95.4718 181.018 92.5769 181.018 89.6405C180.977 87.2004 180.977 84.8017 180.977 82.3203Z" fill="white"/>
<path d="M26.7148 97.4999C26.7562 97.3345 26.7562 97.1691 26.8389 97.0036C27.542 95.8043 28.6173 95.1426 30.0234 95.1012C30.8505 95.0599 31.6363 95.1839 32.3808 95.6389C33.9523 96.6314 34.1591 98.6993 33.2493 100.023C32.4221 101.263 31.2228 101.76 29.8166 101.801C29.6925 101.801 29.5271 101.76 29.4444 101.76C29.858 101.346 30.3129 101.015 30.6024 100.602C31.0987 99.94 31.0987 99.1128 30.7265 98.4098C30.3129 97.6653 29.6098 97.2518 28.7413 97.1691C28.0796 97.1277 27.3766 97.1691 26.7148 97.4999Z" fill="#2B9A28"/>
<path d="M36.765 124.136C37.3854 121.489 34.9453 117.809 32.3398 117.436C32.7534 116.733 33.3738 116.32 34.1182 116.237C34.7799 116.154 35.5243 116.154 36.1033 116.402C38.8743 117.519 39.7841 120.414 38.4193 122.813C38.0058 123.599 37.3854 124.053 36.765 124.136Z" fill="#2B9A28"/>
<path d="M27.5039 106.764C28.2897 105.068 30.5643 104.737 31.8464 105.854C33.0871 106.971 33.542 108.914 33.0044 110.321C32.4668 111.685 30.6884 112.512 29.2823 111.768C30.1921 110.858 30.2335 109.783 29.944 108.666C29.5718 107.343 28.9928 106.929 27.5039 106.764Z" fill="#2B9A28"/>
<path d="M34.6172 109.2C34.948 108.787 35.2375 108.332 35.6511 107.96C36.4369 107.257 37.4295 107.215 38.422 107.505C40.738 108.208 41.9787 111.309 40.8207 113.46C40.4072 114.204 39.8282 114.742 38.9183 114.949C39.6214 113.46 39.2492 112.095 38.3393 110.896C37.4708 109.697 36.4369 108.704 34.6172 109.2Z" fill="#2B9A28"/>
<path d="M37.8429 105.85C39.125 105.147 39.2077 103.989 39.0009 102.666C38.7114 101.094 37.6361 100.308 35.8164 100.225C36.3127 99.357 37.4293 99.0261 38.2565 99.1502C40.2003 99.4397 41.3582 100.887 41.2342 102.872C41.1101 104.568 40.1175 105.643 38.8355 105.85C38.5046 105.891 38.1738 105.85 37.8429 105.85Z" fill="#2C9A29"/>
<path d="M41.8516 128.061C42.3478 127.028 43.175 126.531 44.2916 126.531C45.9873 126.531 47.7656 127.813 48.0965 129.302C48.3446 130.419 47.8897 131.784 47.0212 132.363C46.649 130.626 45.6978 129.385 44.2089 128.475C43.5058 128.02 42.7201 127.896 41.8929 128.144C41.8929 128.103 41.8516 128.103 41.8516 128.061Z" fill="#2C9A29"/>
<path d="M41.0664 120.699C41.8935 119.086 43.341 118.756 44.7472 119.293C44.9126 119.335 45.078 119.541 45.1607 119.707C45.5743 120.699 45.9879 121.733 46.3601 122.726C46.4015 122.891 46.4428 123.098 46.3601 123.222C45.9879 124.091 45.2848 124.67 44.4577 125.166C44.7472 123.967 44.5404 122.933 43.8373 122.023C43.1343 121.196 42.3898 120.451 41.0664 120.699Z" fill="#2C9A29"/>
<path d="M33.9961 89.973C34.8232 88.9391 35.8985 88.5669 37.1392 88.7737C38.5867 88.9805 39.3312 90.0144 39.2898 91.5446C39.2484 92.868 37.8009 94.3155 36.3948 94.3569C37.2219 93.7365 37.4701 92.9921 37.4287 92.0409C37.3874 91.007 36.3534 89.9317 35.3195 89.9317C34.906 89.9317 34.4924 90.0144 34.0375 90.0144C34.0375 90.0144 34.0375 90.0144 33.9961 89.973Z" fill="#2D9B2A"/>
<path d="M27.5032 92.0405C29.4469 90.593 30.0673 88.856 26.8828 87.3258C27.4205 86.6641 28.289 86.4986 29.1574 86.8295C30.8117 87.4085 31.2667 89.6418 30.2741 90.8825C29.571 91.6683 28.6198 91.9578 27.5032 92.0405Z" fill="#2D9B2A"/>
<path d="M35.1546 84.6366C35.0718 82.3619 33.4176 81.6589 31.1016 82.7755C31.267 82.486 31.4324 82.1965 31.6806 81.9897C32.6318 81.1626 33.7484 80.8731 34.9891 81.0799C35.4441 81.1626 35.9403 81.2453 36.3539 81.4521C36.8915 81.7002 37.057 82.1965 36.8502 82.6928C36.478 83.5199 35.9817 84.1817 35.1546 84.6366Z" fill="#2D9B2A"/>
<path d="M41.1094 93.3606C42.1847 92.7816 43.4254 92.9056 44.2939 93.6914C44.542 93.8982 44.6247 94.105 44.5006 94.4772C44.2112 95.3871 44.0044 96.2969 43.7976 97.2068C43.7149 97.5376 43.5494 97.7444 43.2599 97.8271C42.805 97.9512 42.3087 98.0339 41.8124 98.0753C42.5155 97.2895 42.8877 96.4623 42.7637 95.4284C42.6809 94.3945 42.0606 93.7741 41.1094 93.3606Z" fill="#2D9B2A"/>
<path d="M38.3398 85.4676C38.3812 85.3849 38.3812 85.3022 38.4226 85.2608C39.3324 84.2683 41.1935 84.1028 42.2274 84.5991C42.8478 84.8886 43.22 85.3849 43.1786 86.088C43.1373 86.8324 42.765 87.37 42.1447 87.825C42.3515 86.1707 41.5243 85.2608 39.9114 85.3022C39.3324 85.3022 38.8361 85.4263 38.3398 85.4676Z" fill="#2D9B2A"/>
<path d="M45.616 83.6484C46.1123 82.6144 45.9055 82.0768 44.8303 81.8286C44.1272 81.6632 43.3828 81.7046 42.6797 81.6219C43.3828 81.2497 44.1685 81.1256 44.9957 81.2497C45.4093 81.291 45.8228 81.4151 46.195 81.5805C46.8981 81.9114 46.9808 82.5317 46.4018 83.0694C46.195 83.3175 45.9055 83.4416 45.616 83.6484Z" fill="#319D2E"/>
<path d="M44.5 89.4344C44.5 88.111 45.5753 87.3252 47.3123 87.4906C47.1055 87.8628 46.9814 88.235 46.7333 88.5659C46.6506 88.69 46.4024 88.7313 46.237 88.7313C45.5753 88.69 44.9963 88.8967 44.5 89.4344Z" fill="#319D2E"/>
<path d="M37.5508 78.5186C38.7501 77.981 39.8668 77.8982 40.9834 78.1877C41.3556 78.2705 41.7692 78.3532 41.8519 78.8495C41.976 79.3871 41.6451 79.6766 41.2729 79.9247C41.1488 80.0074 41.0248 80.0902 40.9007 80.1315C40.8593 80.0902 40.818 80.0488 40.8593 80.0488C41.3556 79.2217 41.0248 78.6013 39.9495 78.5186C39.2051 78.4772 38.4606 78.5186 37.5508 78.5186Z" fill="#319D2E"/>
<path d="M43.6328 76.0783C44.7081 75.8716 45.6593 76.037 46.5692 76.5746C46.9 76.7814 47.2722 76.9882 47.2309 77.4845C47.1895 77.9394 46.7759 78.1048 46.4037 78.2289C46.2383 78.3116 46.0729 78.3116 45.8661 78.3116C45.9074 78.2703 45.9902 78.2289 46.0315 78.1462C46.5278 77.7326 46.6105 77.2777 46.0315 76.9468C45.4112 76.5746 44.6667 76.4092 44.005 76.1197C43.9223 76.1197 43.7569 76.1197 43.6328 76.0783Z" fill="#319D2E"/>
<path d="M32.2188 76.9011C32.6737 76.4876 33.3767 76.3635 34.0385 76.2808C34.6175 76.1981 35.2378 76.1981 35.8168 76.2808C36.1063 76.3221 36.3545 76.6116 36.644 76.7771C36.4785 77.0252 36.2717 77.3147 36.0236 77.6456C35.8582 76.9839 35.5273 76.6944 34.907 76.7357C33.9971 76.7771 33.0872 76.8598 32.2188 76.9011Z" fill="#319D2E"/>
<path d="M27.668 78.8861C28.2056 78.7207 28.6605 78.5139 29.1155 78.4725C29.6117 78.3898 29.8599 78.762 29.6531 79.2169C29.4463 79.6305 29.1155 79.9614 28.8673 80.2922C28.826 80.2509 28.7846 80.2509 28.7433 80.2095C28.7019 79.8787 28.7432 79.5064 28.6192 79.2997C28.4538 79.0929 28.0815 79.0515 27.668 78.8861Z" fill="#319D2E"/>
<path d="M48.6758 79.3462C49.9992 78.9326 51.1572 79.3462 52.3152 79.9665C52.1498 80.1733 52.0257 80.3387 51.943 80.4214C51.4053 80.1319 50.9091 79.8011 50.3714 79.6357C49.8338 79.4702 49.2134 79.4289 48.6758 79.3462Z" fill="#319D2E"/>
<path d="M43.3005 112.762C43.011 112.969 42.7628 113.134 42.5147 113.299C42.4733 113.299 42.432 113.258 42.3906 113.258C42.5974 112.679 42.8042 112.141 43.011 111.562C43.0523 111.562 43.1351 111.604 43.1764 111.604C43.2178 111.976 43.2591 112.39 43.3005 112.762Z" fill="#319D2E"/>
<path d="M49.6692 83.3984C49.4624 84.3496 48.6353 84.0601 48.0977 84.2669C48.3872 83.6052 48.9662 83.4398 49.6692 83.3984Z" fill="#319D2E"/>
<path d="M52.6484 77.1094C53.2688 77.1921 53.8891 77.2334 54.5509 77.3162C54.5509 77.3989 54.5509 77.4816 54.5922 77.5643C54.4268 77.6057 54.3027 77.6884 54.1373 77.647C53.641 77.5229 53.1447 77.3162 52.6898 77.1507C52.6484 77.1094 52.6484 77.1094 52.6484 77.1094Z" fill="#319D2E"/>
<path d="M34.0788 90.057C34.0375 90.0983 33.9961 90.0983 33.9961 90.1397C33.9961 90.0983 34.0375 90.057 34.0375 90.0156C34.0375 90.0156 34.0375 90.0156 34.0788 90.057Z" fill="#2D9B2A"/>
<path d="M38.3366 85.4609C38.2953 85.5023 38.2539 85.5023 38.2539 85.5437V85.5023C38.2539 85.5023 38.2953 85.4609 38.3366 85.4609Z" fill="#2D9B2A"/>
<path d="M41.8952 128.145C41.8539 128.145 41.8539 128.187 41.8125 128.187C41.8125 128.145 41.8125 128.104 41.8125 128.062C41.8539 128.104 41.8952 128.104 41.8952 128.145Z" fill="#2C9A29"/>
<path d="M26.7155 97.4609C26.6742 97.4609 26.6742 97.5023 26.6328 97.5023V97.4609C26.6742 97.5023 26.7155 97.5023 26.7155 97.4609Z" fill="#2B9A28"/>
<path d="M18.6522 98.4922C18.6936 98.5335 18.6936 98.5749 18.735 98.6163C18.6936 98.6163 18.6522 98.5749 18.6109 98.5749C18.5695 98.5749 18.6109 98.5335 18.6522 98.4922Z" fill="#F9FCF9"/>
<path d="M50.5381 142.622C50.4968 142.58 50.4554 142.539 50.4141 142.539C50.4554 142.539 50.5381 142.539 50.5795 142.539C50.5795 142.58 50.5381 142.58 50.5381 142.622Z" fill="#FBFDFB"/>
<path d="M50.9531 138.026L50.9945 137.984V138.026H50.9531Z" fill="#FBFDFB"/>
<path d="M12.2812 95.8828C12.2812 95.9242 12.2812 95.9242 12.2812 95.9242C12.2812 95.9242 12.3226 95.8828 12.2812 95.8828Z" fill="#F9FCF9"/>
</svg>
