<svg width="32" height="32" viewBox="0 0 32 32" fill="none" xmlns="http://www.w3.org/2000/svg">
<path d="M6.82806 11.1287C6.83825 11.0982 6.84844 11.0676 6.84844 11.0268C6.95036 8.86631 7.7045 6.95039 9.12106 5.31982C10.507 3.73001 12.2497 2.73128 14.3185 2.32364C14.7262 2.24211 15.1338 2.22173 15.5516 2.18096C15.7555 2.16058 15.9695 2.15039 16.1733 2.15039C16.6726 2.17077 17.172 2.20135 17.6714 2.29307C18.2828 2.40517 18.8841 2.57842 19.4854 2.79243C19.3733 2.89434 19.2714 2.99625 19.1695 3.08797C19.1491 3.09816 19.1083 3.09816 19.0777 3.08797C18.6191 2.91472 18.1504 2.80262 17.6612 2.73128C17.3351 2.68033 17.009 2.65994 16.6828 2.63956C16.3465 2.61918 16 2.5988 15.6637 2.60899C14.5937 2.64975 13.5542 2.87396 12.5758 3.33256C12.2701 3.47523 11.9542 3.6281 11.73 3.90326C11.6179 4.03574 11.6281 4.06631 11.7911 4.10708C11.8421 4.11727 11.893 4.12746 11.944 4.14784C12.2701 4.23956 12.4026 4.44338 12.3618 4.77969C12.3109 5.14657 12.1478 5.43192 11.8625 5.65612C11.7198 5.76822 11.5771 5.89052 11.465 6.023C11.3733 6.1351 11.3019 6.28797 11.2612 6.43065C11.2 6.62428 11.2918 6.75676 11.465 6.84848C11.5669 6.89943 11.6688 6.96058 11.7605 7.03192C12.0051 7.21536 12.0357 7.5109 11.9236 7.78606C11.8726 7.90835 11.7809 8.02045 11.6994 8.13256C11.5567 8.3058 11.414 8.47905 11.3529 8.71345C11.3223 8.81536 11.3427 8.89689 11.4242 8.95803C11.4752 8.9988 11.5262 9.02937 11.5771 9.05994C12.0459 9.3351 12.1682 9.75294 12.0255 10.2523C11.9847 10.4154 11.8828 10.5682 11.7911 10.7211C11.6383 10.9657 11.5771 11.2103 11.6586 11.4854C11.7198 11.6892 11.8523 11.8319 12.0765 11.8931C12.2905 11.9542 12.5045 12.0255 12.6981 12.1275C13.1262 12.3517 13.279 12.7491 13.1465 13.2077C13.0854 13.4013 13.0039 13.595 12.9529 13.7886C12.8306 14.2676 13.1262 14.7771 13.6153 14.981C13.8905 15.0931 14.1758 15.1134 14.4612 15.1033C15.1542 15.0931 15.5516 15.6026 15.4497 16.2243C15.3682 16.6829 15.7147 17.1211 16.1223 17.274C16.3567 17.3657 16.5504 17.2943 16.744 17.1924C17.0599 17.0294 17.386 17.0396 17.7019 17.1313C18.0077 17.223 18.2217 17.4472 18.3338 17.7529C18.4969 18.1912 18.8943 18.3134 19.2714 18.0281C19.3223 17.9873 19.3733 17.9364 19.4242 17.8956C19.4344 17.9058 19.4446 17.9058 19.4548 17.9058C19.6994 18.0994 19.944 18.3033 20.1988 18.5071C19.893 18.7924 19.5567 18.9453 19.1287 18.8638C19.2204 18.9962 19.414 19.0472 19.6179 19.0064C19.9032 18.9453 20.1478 18.823 20.3516 18.609C20.6166 18.772 20.8816 18.9453 21.1669 19.1185C20.8408 19.302 20.5351 19.4854 20.2293 19.6383C19.4039 20.0561 18.5274 20.3415 17.6102 20.4943C16.9784 20.6064 16.3465 20.6472 15.7147 20.6064C13.279 20.4841 11.2 19.5669 9.47774 17.8345C8.23443 16.5912 7.43953 15.0931 7.06246 13.381C6.97074 12.9835 6.92997 12.5759 6.86883 12.1682C6.84844 12.0052 6.83825 11.8421 6.81787 11.6892C6.82806 11.5262 6.82806 11.3326 6.82806 11.1287ZM17.9262 19.3529C17.9363 19.3631 17.9465 19.3631 17.9465 19.3733C17.9567 19.516 17.9058 19.5771 17.7427 19.6077C17.5185 19.6587 17.2943 19.6383 17.0803 19.5568C16.9682 19.516 16.8663 19.4548 16.8561 19.3122C16.6421 19.4345 16.6319 19.5975 16.8357 19.73C16.8663 19.7504 16.8867 19.7606 16.9172 19.781C17.2433 19.9134 17.5695 19.9338 17.9058 19.8421C18.0179 19.8115 18.1402 19.7606 18.1504 19.6179C18.1605 19.4752 18.0484 19.4141 17.9465 19.3529C17.9567 19.3529 17.9465 19.3529 17.9262 19.3529ZM8.52997 7.8574C8.56055 7.84721 8.60131 7.84721 8.63188 7.83701C8.70322 7.82682 8.75418 7.8574 8.75418 7.93893C8.74399 8.06122 8.74399 8.18351 8.70322 8.29561C8.67265 8.40772 8.6115 8.50963 8.56055 8.62173C8.57074 8.62173 8.58093 8.62173 8.59112 8.62173C8.80513 8.36695 8.958 8.09179 8.94781 7.74529C8.93762 7.65358 8.85609 7.60262 8.76437 7.66377C8.69303 7.70453 8.6115 7.78606 8.52997 7.8574C8.52997 7.86759 8.52997 7.86759 8.52997 7.86759V7.8574ZM10.079 8.51982C10.0892 8.51982 10.0994 8.53001 10.1096 8.53001C10.0994 8.51982 10.0994 8.50963 10.0892 8.49944C9.93634 8.32619 9.77329 8.29561 9.58985 8.39752C9.3045 8.56058 9.05991 9.02937 9.10067 9.36568C9.12106 9.48797 9.15163 9.60007 9.28411 9.70198C9.22297 9.40644 9.31469 9.16186 9.42679 8.91727C9.55927 8.62173 9.7529 8.50963 10.079 8.51982ZM18.0586 18.2421C18.0179 18.2523 17.9771 18.2625 17.9465 18.2727C17.7325 18.3338 17.5185 18.3848 17.2841 18.344C16.9784 18.2829 16.7032 18.181 16.4994 17.916C16.4586 18.0892 16.479 18.2217 16.5605 18.3542C16.7949 18.7313 17.4879 18.8638 17.8446 18.5886C17.9465 18.4969 18.0383 18.395 18.0586 18.2421C18.0586 18.2421 18.0688 18.2421 18.079 18.2421V18.2319C18.0586 18.2319 18.0586 18.2421 18.0586 18.2421ZM14.9809 16.6931C14.6752 16.6421 14.4204 16.4791 14.1962 16.2854C13.9618 16.0816 13.7682 15.8574 13.758 15.5109C13.4013 15.8472 13.4828 16.3466 13.8191 16.7134C14.0841 16.9886 14.665 17.0294 14.9809 16.6931ZM12.4841 16.316C12.0663 16.3568 11.8726 16.0714 11.6892 15.7759C11.4956 15.4701 11.4752 15.144 11.5058 14.7975C11.2918 14.8587 11.1083 15.1134 11.0879 15.3275C11.037 15.7147 11.3937 16.265 11.7707 16.3975C12.0153 16.4994 12.2599 16.4791 12.4841 16.316ZM10.2115 13.1771C9.91596 12.9427 9.80386 12.6268 9.74271 12.2905C9.68157 11.9542 9.67137 11.6179 9.90577 11.3326C9.55927 11.3733 9.21278 11.8013 9.27392 12.3211C9.32488 12.8103 9.71214 13.2383 10.2115 13.1771ZM15.6637 18.4255C15.3274 18.558 15.0217 18.5376 14.716 18.4357C14.4102 18.3338 14.1351 18.181 14.0026 17.8548C13.8599 18.0892 14.1147 18.609 14.4612 18.8026C14.9605 19.088 15.4497 18.8434 15.6637 18.4255ZM12.6574 18.7313C12.8204 18.7313 12.9733 18.6396 12.9631 18.4969C12.9631 18.3644 12.9529 18.2217 12.8918 18.1096C12.7389 17.7733 12.4739 17.5389 12.1274 17.3962C12.0357 17.3555 11.9338 17.3453 11.8319 17.3453C11.6077 17.3351 11.4344 17.6001 11.5669 17.8243C11.5975 17.6103 11.6994 17.5389 11.9032 17.6103C11.944 17.6205 11.9848 17.6408 12.0153 17.651C12.3007 17.8039 12.5147 18.0383 12.6166 18.344C12.6574 18.4561 12.6472 18.5886 12.6574 18.7313ZM9.67137 15.5415C9.76309 15.5517 9.82424 15.572 9.88539 15.5619C10.079 15.5313 10.1402 15.3784 10.1707 15.2255C10.2421 14.7364 10.0484 14.3084 9.60004 14.0434C9.33507 13.8905 9.08029 14.0434 9.0701 14.3593C9.24335 14.2064 9.35545 14.2064 9.51851 14.3797C9.73252 14.6039 9.89558 14.8485 9.8752 15.195C9.85481 15.3173 9.83443 15.4396 9.67137 15.5415ZM11.8828 12.3313C11.5567 12.423 11.3223 12.902 11.4344 13.2281C11.5873 13.7071 12.1274 13.9619 12.4637 13.7886C12.1784 13.6561 11.9848 13.4523 11.8625 13.1771C11.73 12.902 11.73 12.6166 11.8828 12.3313ZM11.0574 9.30453C10.8433 9.39625 10.6701 9.54912 10.5478 9.74275C10.4051 9.97714 10.3644 10.2115 10.5172 10.4561C10.6701 10.7007 10.9147 10.772 11.2102 10.7619C10.9045 10.6701 10.7822 10.4052 10.772 10.0892C10.7618 9.80389 10.8739 9.53893 11.0574 9.30453ZM9.89558 7.60262C9.80386 7.49052 9.73252 7.35803 9.76309 7.21536C9.81405 7.00135 9.90577 6.79752 10.0484 6.61408C10.2013 6.42045 10.3949 6.27778 10.6395 6.18606C10.4867 6.11472 10.3644 6.1453 10.2523 6.20644C9.8752 6.38988 9.6408 6.69561 9.5287 7.09307C9.50832 7.1644 9.50832 7.24593 9.50832 7.31727C9.53889 7.53128 9.68157 7.63319 9.89558 7.60262ZM8.10195 11.8319C8.11214 11.8421 8.12233 11.8523 8.13252 11.8625C8.21405 11.8013 8.30577 11.7504 8.37711 11.6791C8.58093 11.4548 8.69303 11.1797 8.73379 10.874C8.75418 10.6905 8.75418 10.5071 8.73379 10.3236C8.7236 10.2013 8.6115 10.1606 8.51978 10.1912C8.3873 10.2319 8.19367 10.4561 8.17329 10.609C8.40768 10.5275 8.52997 10.609 8.55036 10.8536C8.56055 10.9249 8.55036 11.0064 8.54016 11.088C8.47902 11.3835 8.34653 11.6383 8.10195 11.8319ZM11.2714 7.13383C10.8637 7.11345 10.4867 7.58224 10.5784 7.9695C10.6293 8.20389 10.8841 8.34657 11.1695 8.316C10.6905 8.00007 10.9045 7.45994 11.2714 7.13383ZM11.8217 4.62682C11.4446 4.72873 11.2 4.95294 11.037 5.25867C11.0064 5.30963 10.9962 5.38096 11.0064 5.43192C11.0166 5.60517 11.2204 5.71727 11.3325 5.66631C11.3325 5.57459 11.3121 5.49307 11.3325 5.42173C11.4242 5.12619 11.5975 4.87141 11.8217 4.62682ZM9.70195 16.8154C10.0077 16.8052 10.3338 17.1619 10.3134 17.5491C10.4561 17.5185 10.5172 17.4574 10.5274 17.3249C10.5478 17.0396 10.2726 16.6829 9.9873 16.6421C9.83443 16.6115 9.73252 16.6727 9.70195 16.8154ZM14.1758 19.6689C14.1147 19.4243 13.8905 19.2816 13.5542 19.302C13.4319 19.302 13.3504 19.3835 13.3402 19.4854C13.6561 19.3937 13.9109 19.5466 14.1758 19.6689ZM16.1325 19.9338C16.2039 19.8625 16.1733 19.8013 16.1223 19.7504C16 19.6281 15.6739 19.5669 15.5109 19.6485C15.4497 19.6791 15.3988 19.73 15.4395 19.8013C15.6943 19.7708 15.9287 19.7402 16.1325 19.9338ZM8.20386 13.381C8.32615 13.381 8.37711 13.3198 8.3873 13.2179C8.41787 13.0548 8.33634 12.8612 8.20386 12.7899C8.13252 12.7491 8.06118 12.7491 8.00004 12.8205C8.22424 12.9529 8.25481 13.1466 8.20386 13.381ZM10.2828 5.48287C10.1707 5.38096 10.2523 5.31982 10.2828 5.25867C10.3236 5.19752 10.3746 5.14657 10.4153 5.08542C10.4051 5.07523 10.3949 5.07523 10.3848 5.06504C10.3032 5.14657 10.2115 5.2281 10.1402 5.33001C10.0994 5.38096 10.0994 5.46249 10.079 5.52364C10.1504 5.50326 10.2217 5.49307 10.2828 5.48287Z" fill="#2A9927"/>
<path d="M15.9592 24.4789C16.1121 25.2942 16.2751 26.1095 16.428 26.9248H16.4382C16.4687 26.619 16.4891 26.3133 16.5197 26.0177C16.5503 25.6916 16.6012 25.3757 16.6114 25.0496C16.6522 24.3464 16.856 23.6942 17.1413 23.0725C17.2433 22.8483 17.3757 22.6547 17.498 22.4305C16.9885 22.4407 16.4585 22.4203 15.9592 22.2267C16.1732 22.1757 16.3974 22.1349 16.6012 22.0636C16.805 21.9923 17.0089 21.9005 17.2025 21.7884C16.591 21.6662 15.9694 21.5744 15.3579 21.34C15.5617 21.3298 15.735 21.3095 15.9082 21.2993C16.214 21.2789 16.5197 21.2789 16.8254 21.2483C17.4165 21.1872 18.0076 21.1056 18.5783 20.9018C18.7414 20.8407 18.9146 20.8203 19.0878 20.7897C19.1694 20.7693 19.2101 20.8203 19.2407 20.8814C19.3324 21.0547 19.3324 21.2381 19.3121 21.4114C19.2509 21.819 19.0063 22.1248 18.6496 22.2878C17.8955 22.6343 17.549 23.2662 17.3859 24.0203C17.2738 24.54 17.1821 25.0598 17.0904 25.5897C17.0191 26.0381 16.9579 26.4967 16.8968 26.9451C16.8254 27.4547 16.7643 27.9642 16.7031 28.4738C16.6624 28.8203 16.6318 29.1668 16.6012 29.5133C16.5605 30.0127 16.4789 30.5018 16.2547 30.9502C16.1936 31.0623 16.1732 31.0725 16.0815 30.9706C15.9999 30.8789 15.9592 30.7872 15.9592 30.6649C15.9592 30.3693 15.949 30.084 15.9388 29.7884C15.9286 29.5948 15.9184 29.4114 15.9184 29.2177C15.9082 28.9018 15.898 28.5961 15.8878 28.2802C15.8777 27.4547 15.8675 26.619 15.8675 25.7935C15.8675 25.3655 15.898 24.9375 15.9184 24.5095C15.9184 24.4993 15.9286 24.4789 15.9286 24.4687C15.949 24.4789 15.949 24.4789 15.9592 24.4789Z" fill="white"/>
<path d="M15.6535 30.4919C15.5923 30.1658 15.5312 29.8397 15.47 29.5034C15.4089 29.1365 15.3477 28.7697 15.2968 28.3926C15.256 28.1174 15.2356 27.8423 15.1949 27.5671C15.1133 27.027 15.042 26.4868 14.9401 25.9467C14.8789 25.6206 14.7974 25.2945 14.7261 24.9684C14.6445 24.5607 14.563 24.1633 14.4815 23.7556C14.4509 23.6028 14.3898 23.4499 14.3388 23.3072C14.1656 22.8181 13.8496 22.4512 13.4012 22.1964C13.2178 22.0843 13.0445 21.9518 12.9019 21.7989C12.698 21.5849 12.5859 21.32 12.5859 21.0142C12.5859 20.9633 12.5961 20.9021 12.6165 20.8512C12.6777 20.6168 12.7184 20.576 12.9528 20.5964C13.1159 20.6168 13.2687 20.6575 13.4216 20.7187C13.5745 20.7798 13.6458 20.9021 13.605 21.0652C13.5439 21.3404 13.6254 21.5849 13.7885 21.7888C13.9312 21.962 14.1044 22.1251 14.2675 22.2779C14.4 22.4104 14.5528 22.5327 14.6955 22.6652C14.991 22.9709 15.1847 23.3378 15.2356 23.7658C15.2662 24.0512 15.2968 24.3365 15.307 24.6219C15.3273 25.0397 15.3375 25.4575 15.3579 25.8754C15.3783 26.3034 15.4191 26.7314 15.4598 27.1697C15.4904 27.5365 15.5312 27.8932 15.5515 28.2601C15.5821 28.6677 15.6025 29.0754 15.6229 29.483C15.6433 29.8295 15.6738 30.1658 15.7044 30.5021C15.6738 30.4919 15.6636 30.4919 15.6535 30.4919Z" fill="white"/>
<path d="M12.0864 8.25503C12.0966 8.21427 12.0966 8.1735 12.117 8.13274C12.2902 7.8372 12.5552 7.67414 12.9017 7.66395C13.1055 7.65376 13.2992 7.68433 13.4826 7.79643C13.8699 8.04102 13.9208 8.55057 13.6966 8.87669C13.4928 9.18242 13.1973 9.30471 12.8508 9.3149C12.8202 9.3149 12.7794 9.30471 12.759 9.30471C12.8609 9.2028 12.9731 9.12127 13.0444 9.01936C13.1667 8.8563 13.1667 8.65248 13.075 8.47923C12.9731 8.29579 12.7998 8.19388 12.5858 8.1735C12.4227 8.16331 12.2495 8.1735 12.0864 8.25503Z" fill="#2B9A28"/>
<path d="M14.5631 14.8181C14.716 14.1658 14.1147 13.2588 13.4727 13.1671C13.5746 12.9939 13.7274 12.8919 13.9109 12.8716C14.0739 12.8512 14.2574 12.8512 14.4 12.9123C15.0828 13.1875 15.3071 13.9009 14.9707 14.4919C14.8688 14.6856 14.716 14.7977 14.5631 14.8181Z" fill="#2B9A28"/>
<path d="M12.2803 10.5379C12.4739 10.1201 13.0344 10.0385 13.3503 10.3137C13.6561 10.5889 13.7682 11.0678 13.6357 11.4143C13.5032 11.7507 13.065 11.9545 12.7185 11.771C12.9427 11.5468 12.9529 11.2819 12.8815 11.0067C12.7898 10.6806 12.6472 10.5787 12.2803 10.5379Z" fill="#2B9A28"/>
<path d="M14.0332 11.1391C14.1147 11.0372 14.1861 10.9251 14.288 10.8334C14.4816 10.6601 14.7262 10.6499 14.9708 10.7213C15.5415 10.8945 15.8472 11.6588 15.5619 12.1888C15.46 12.3722 15.3173 12.5047 15.0931 12.5557C15.2663 12.1888 15.1746 11.8525 14.9504 11.5569C14.7364 11.2614 14.4816 11.0168 14.0332 11.1391Z" fill="#2B9A28"/>
<path d="M14.828 10.3134C15.1439 10.1402 15.1643 9.85481 15.1133 9.52869C15.042 9.14143 14.777 8.9478 14.3286 8.92742C14.4509 8.71341 14.7261 8.63188 14.9299 8.66245C15.4089 8.73379 15.6942 9.09048 15.6636 9.57965C15.6331 9.99748 15.3885 10.2625 15.0726 10.3134C14.991 10.3236 14.9095 10.3134 14.828 10.3134Z" fill="#2C9A29"/>
<path d="M15.8164 15.7862C15.9387 15.5315 16.1425 15.4092 16.4177 15.4092C16.8355 15.4092 17.2737 15.7251 17.3553 16.092C17.4164 16.3671 17.3043 16.7034 17.0903 16.8461C16.9986 16.4181 16.7642 16.1124 16.3973 15.8882C16.2241 15.7761 16.0304 15.7455 15.8266 15.8066C15.8266 15.7964 15.8164 15.7964 15.8164 15.7862Z" fill="#2C9A29"/>
<path d="M15.623 13.9717C15.8269 13.5742 16.1836 13.4927 16.5301 13.6252C16.5708 13.6354 16.6116 13.6863 16.632 13.7271C16.7339 13.9717 16.8358 14.2265 16.9275 14.471C16.9377 14.5118 16.9479 14.5628 16.9275 14.5933C16.8358 14.8074 16.6625 14.95 16.4587 15.0723C16.5301 14.7768 16.4791 14.522 16.3058 14.2978C16.1326 14.094 15.9492 13.9105 15.623 13.9717Z" fill="#2C9A29"/>
<path d="M13.8804 6.3999C14.0842 6.14512 14.3492 6.0534 14.6549 6.10436C15.0116 6.15531 15.195 6.41009 15.1848 6.78716C15.1746 7.11327 14.818 7.46996 14.4715 7.48015C14.6753 7.32729 14.7364 7.14385 14.7262 6.90945C14.716 6.65467 14.4613 6.38971 14.2065 6.38971C14.1046 6.38971 14.0027 6.41009 13.8906 6.41009C13.8906 6.41009 13.8906 6.41009 13.8804 6.3999Z" fill="#2D9B2A"/>
<path d="M12.2803 6.9098C12.7593 6.55311 12.9122 6.12509 12.1274 5.74802C12.2599 5.58496 12.4739 5.5442 12.688 5.62573C13.0956 5.7684 13.2077 6.31872 12.9631 6.62445C12.7899 6.81808 12.5555 6.88942 12.2803 6.9098Z" fill="#2D9B2A"/>
<path d="M14.1657 5.08563C14.1453 4.52512 13.7377 4.35187 13.167 4.62703C13.2078 4.55569 13.2485 4.48435 13.3097 4.4334C13.5441 4.22957 13.8192 4.15824 14.125 4.20919C14.2371 4.22957 14.3593 4.24996 14.4613 4.30091C14.5937 4.36206 14.6345 4.48435 14.5836 4.60664C14.4918 4.81047 14.3695 4.97352 14.1657 5.08563Z" fill="#2D9B2A"/>
<path d="M15.6333 7.23533C15.8983 7.09266 16.204 7.12323 16.418 7.31686C16.4792 7.36782 16.4995 7.41877 16.469 7.51049C16.3976 7.73469 16.3467 7.9589 16.2957 8.1831C16.2753 8.26463 16.2346 8.31559 16.1632 8.33597C16.0511 8.36654 15.9288 8.38692 15.8065 8.39712C15.9798 8.20348 16.0715 7.99966 16.0409 7.74489C16.0206 7.49011 15.8677 7.33724 15.6333 7.23533Z" fill="#2D9B2A"/>
<path d="M14.9502 5.28958C14.9604 5.2692 14.9604 5.24882 14.9706 5.23863C15.1948 4.99404 15.6534 4.95327 15.9082 5.07557C16.061 5.14691 16.1527 5.2692 16.1426 5.44245C16.1324 5.62589 16.0406 5.75837 15.8878 5.87047C15.9387 5.46283 15.7349 5.23862 15.3375 5.24882C15.1948 5.24882 15.0725 5.27939 14.9502 5.28958Z" fill="#2D9B2A"/>
<path d="M16.7441 4.84083C16.8664 4.58605 16.8154 4.45357 16.5504 4.39242C16.3772 4.35166 16.1938 4.36185 16.0205 4.34147C16.1938 4.24975 16.3874 4.21917 16.5912 4.24975C16.6931 4.25994 16.795 4.29051 16.8867 4.33127C17.06 4.4128 17.0804 4.56567 16.9377 4.69815C16.8867 4.7593 16.8154 4.78987 16.7441 4.84083Z" fill="#319D2E"/>
<path d="M16.4688 6.26757C16.4688 5.94146 16.7337 5.74782 17.1617 5.78859C17.1108 5.88031 17.0802 5.97203 17.0191 6.05356C16.9987 6.08413 16.9375 6.09432 16.8968 6.09432C16.7337 6.08413 16.591 6.13509 16.4688 6.26757Z" fill="#319D2E"/>
<path d="M14.7568 3.57709C15.0524 3.44461 15.3275 3.42423 15.6027 3.49556C15.6944 3.51595 15.7963 3.53633 15.8167 3.65862C15.8473 3.79111 15.7658 3.86244 15.674 3.92359C15.6435 3.94397 15.6129 3.96435 15.5823 3.97455C15.5721 3.96435 15.5619 3.95416 15.5721 3.95416C15.6944 3.75034 15.6129 3.59748 15.3479 3.57709C15.1645 3.5669 14.981 3.57709 14.7568 3.57709Z" fill="#319D2E"/>
<path d="M16.2549 2.97533C16.5199 2.92438 16.7542 2.96514 16.9784 3.09763C17.06 3.14858 17.1517 3.19954 17.1415 3.32183C17.1313 3.43393 17.0294 3.4747 16.9377 3.50527C16.8969 3.52565 16.8562 3.52565 16.8052 3.52565C16.8154 3.51546 16.8358 3.50527 16.846 3.48489C16.9683 3.38298 16.9886 3.27087 16.846 3.18935C16.6931 3.09763 16.5097 3.05686 16.3466 2.98552C16.3262 2.98552 16.2855 2.98552 16.2549 2.97533Z" fill="#319D2E"/>
<path d="M13.4419 3.17987C13.554 3.07796 13.7272 3.04739 13.8903 3.02701C14.033 3.00662 14.1858 3.00662 14.3285 3.02701C14.3999 3.0372 14.461 3.10853 14.5323 3.1493C14.4916 3.21044 14.4406 3.28178 14.3795 3.36331C14.3387 3.20025 14.2572 3.12892 14.1043 3.13911C13.8801 3.1493 13.6559 3.16968 13.4419 3.17987Z" fill="#319D2E"/>
<path d="M12.3208 3.66922C12.4533 3.62845 12.5654 3.5775 12.6775 3.56731C12.7998 3.54692 12.8609 3.63864 12.81 3.75074C12.759 3.85266 12.6775 3.93418 12.6163 4.01571C12.6062 4.00552 12.596 4.00552 12.5858 3.99533C12.5756 3.9138 12.5858 3.82208 12.5552 3.77113C12.5144 3.72017 12.4227 3.70998 12.3208 3.66922Z" fill="#319D2E"/>
<path d="M17.498 3.78126C17.8242 3.67935 18.1095 3.78126 18.3949 3.93412C18.3541 3.98508 18.3235 4.02584 18.3031 4.04622C18.1707 3.97489 18.0484 3.89336 17.9159 3.85259C17.7834 3.81183 17.6305 3.80164 17.498 3.78126Z" fill="#319D2E"/>
<path d="M16.1734 12.0153C16.1021 12.0662 16.0409 12.107 15.9798 12.1478C15.9696 12.1478 15.9594 12.1376 15.9492 12.1376C16.0002 11.9949 16.0511 11.8624 16.1021 11.7197C16.1123 11.7197 16.1327 11.7299 16.1428 11.7299C16.153 11.8216 16.1632 11.9235 16.1734 12.0153Z" fill="#319D2E"/>
<path d="M17.7427 4.7793C17.6918 5.01369 17.488 4.94235 17.3555 4.99331C17.4268 4.83025 17.5695 4.78949 17.7427 4.7793Z" fill="#319D2E"/>
<path d="M18.4766 3.23047C18.6294 3.25085 18.7823 3.26104 18.9454 3.28142C18.9454 3.30181 18.9454 3.32219 18.9555 3.34257C18.9148 3.35276 18.8842 3.37314 18.8434 3.36295C18.7211 3.33238 18.5989 3.28142 18.4868 3.24066C18.4766 3.23047 18.4766 3.23047 18.4766 3.23047Z" fill="#319D2E"/>
<path d="M13.9008 6.42035C13.8906 6.43054 13.8804 6.43054 13.8804 6.44073C13.8804 6.43054 13.8906 6.42035 13.8906 6.41016C13.8906 6.41016 13.8906 6.41016 13.9008 6.42035Z" fill="#2D9B2A"/>
<path d="M14.9506 5.28906C14.9404 5.29925 14.9302 5.29925 14.9302 5.30944V5.29925C14.9302 5.29925 14.9404 5.28906 14.9506 5.28906Z" fill="#2D9B2A"/>
<path d="M15.8265 15.8065C15.8163 15.8065 15.8163 15.8167 15.8062 15.8167C15.8062 15.8065 15.8062 15.7963 15.8062 15.7861C15.8163 15.7963 15.8265 15.7963 15.8265 15.8065Z" fill="#2C9A29"/>
<path d="M12.0868 8.24414C12.0766 8.24414 12.0766 8.25433 12.0664 8.25433V8.24414C12.0766 8.25433 12.0868 8.25433 12.0868 8.24414Z" fill="#2B9A28"/>
<path d="M10.0994 8.49902C10.1096 8.50921 10.1096 8.51941 10.1198 8.5296C10.1096 8.5296 10.0994 8.51941 10.0892 8.51941C10.079 8.51941 10.0892 8.50921 10.0994 8.49902Z" fill="#F9FCF9"/>
<path d="M17.9568 19.3729C17.9467 19.3627 17.9365 19.3525 17.9263 19.3525C17.9365 19.3525 17.9568 19.3525 17.967 19.3525C17.967 19.3627 17.9568 19.3627 17.9568 19.3729Z" fill="#FBFDFB"/>
<path d="M18.0586 18.2416L18.0688 18.2314V18.2416H18.0586Z" fill="#FBFDFB"/>
<path d="M8.52979 7.85742C8.52979 7.86761 8.52979 7.86761 8.52979 7.86761C8.52979 7.86761 8.53998 7.85742 8.52979 7.85742Z" fill="#F9FCF9"/>
</svg>
