<svg width="256" height="256" viewBox="0 0 256 256" fill="none" xmlns="http://www.w3.org/2000/svg">
<path d="M54.624 89.0289C54.7055 88.7843 54.7871 88.5397 54.7871 88.2136C55.6024 70.9295 61.6355 55.6021 72.968 42.5576C84.0559 29.8391 97.9973 21.8493 114.548 18.5881C117.809 17.9359 121.07 17.7728 124.413 17.4467C126.043 17.2837 127.755 17.2021 129.386 17.2021C133.381 17.3652 137.376 17.6098 141.371 18.3435C146.262 19.2404 151.072 20.6264 155.883 22.3385C154.986 23.1537 154.171 23.969 153.355 24.7028C153.192 24.7843 152.866 24.7843 152.621 24.7028C148.953 23.3168 145.202 22.42 141.289 21.8493C138.68 21.4416 136.071 21.2786 133.462 21.1155C130.772 20.9525 128 20.7894 125.309 20.8709C116.749 21.1971 108.433 22.9907 100.606 26.6595C98.1603 27.8009 95.6329 29.0238 93.8393 31.2251C92.9425 32.2849 93.024 32.5295 94.3285 32.8556C94.7361 32.9372 95.1438 33.0187 95.5514 33.1818C98.1603 33.9155 99.2202 35.5461 98.8941 38.2365C98.4864 41.1716 97.182 43.4544 94.8992 45.248C93.7578 46.1448 92.6164 47.1232 91.7195 48.183C90.9858 49.0799 90.4151 50.3028 90.089 51.4442C89.5998 52.9932 90.3336 54.0531 91.7195 54.7869C92.5348 55.1945 93.3501 55.6837 94.0839 56.2544C96.0406 57.7219 96.2852 60.0862 95.3883 62.2875C94.9807 63.2658 94.2469 64.1627 93.5947 65.0595C92.4533 66.4455 91.3119 67.8314 90.8227 69.7066C90.5781 70.5219 90.7412 71.1741 91.3934 71.6633C91.8011 71.9894 92.2087 72.234 92.6164 72.4786C96.3667 74.6799 97.345 78.0225 96.2036 82.0174C95.8775 83.3219 95.0622 84.5448 94.3285 85.7677C93.1055 87.7244 92.6164 89.6811 93.2686 91.8824C93.7578 93.513 94.8176 94.6544 96.6113 95.1435C98.3234 95.6327 100.035 96.2034 101.585 97.0187C105.009 98.8123 106.232 101.992 105.172 105.661C104.683 107.21 104.03 108.759 103.623 110.308C102.644 114.14 105.009 118.216 108.922 119.847C111.123 120.744 113.406 120.907 115.689 120.825C121.233 120.744 124.413 124.82 123.597 129.793C122.945 133.462 125.717 136.968 128.978 138.191C130.853 138.924 132.402 138.354 133.951 137.538C136.479 136.234 139.088 136.316 141.615 137.049C144.061 137.783 145.773 139.577 146.67 142.023C147.974 145.528 151.154 146.507 154.171 144.224C154.578 143.898 154.986 143.49 155.393 143.164C155.475 143.245 155.556 143.245 155.638 143.245C157.595 144.794 159.551 146.425 161.59 148.056C159.144 150.338 156.453 151.561 153.029 150.909C153.763 151.969 155.312 152.377 156.942 152.051C159.225 151.561 161.182 150.583 162.813 148.871C164.932 150.175 167.052 151.561 169.335 152.947C166.726 154.415 164.28 155.882 161.834 157.105C155.23 160.448 148.219 162.731 140.881 163.954C135.827 164.851 130.772 165.177 125.717 164.851C106.232 163.872 89.5998 156.535 75.8215 142.675C65.875 132.728 59.5157 120.744 56.4992 107.047C55.7654 103.867 55.4393 100.606 54.9501 97.3448C54.7871 96.0404 54.7055 94.7359 54.5425 93.513C54.624 92.2085 54.624 90.6595 54.624 89.0289ZM143.409 154.823C143.49 154.904 143.572 154.904 143.572 154.986C143.653 156.127 143.246 156.616 141.941 156.861C140.148 157.268 138.354 157.105 136.642 156.453C135.745 156.127 134.93 155.638 134.848 154.496C133.136 155.475 133.055 156.779 134.685 157.839C134.93 158.002 135.093 158.084 135.337 158.247C137.946 159.307 140.555 159.47 143.246 158.736C144.142 158.491 145.121 158.084 145.202 156.942C145.284 155.801 144.387 155.312 143.572 154.823C143.653 154.823 143.572 154.823 143.409 154.823ZM68.2393 62.8582C68.4839 62.7767 68.81 62.7767 69.0546 62.6951C69.6253 62.6136 70.0329 62.8582 70.0329 63.5104C69.9514 64.4888 69.9514 65.4671 69.6253 66.3639C69.3807 67.2607 68.8915 68.076 68.4839 68.9728C68.5654 68.9728 68.6469 68.9728 68.7285 68.9728C70.4406 66.9346 71.6635 64.7334 71.582 61.9614C71.5004 61.2276 70.8482 60.82 70.1145 61.3092C69.5438 61.6353 68.8915 62.2875 68.2393 62.8582C68.2393 62.9397 68.2393 62.9397 68.2393 62.9397V62.8582ZM80.6317 68.1576C80.7132 68.1576 80.7947 68.2391 80.8762 68.2391C80.7947 68.1576 80.7947 68.076 80.7132 67.9945C79.4903 66.6085 78.1858 66.3639 76.7183 67.1792C74.4355 68.4837 72.4788 72.234 72.8049 74.9244C72.968 75.9028 73.2125 76.7996 74.2724 77.6149C73.7832 75.2506 74.517 73.2939 75.4138 71.3372C76.4737 68.9728 78.0227 68.076 80.6317 68.1576ZM144.469 145.936C144.142 146.017 143.816 146.099 143.572 146.18C141.86 146.67 140.148 147.077 138.272 146.751C135.827 146.262 133.625 145.447 131.995 143.327C131.669 144.713 131.832 145.773 132.484 146.833C134.359 149.849 139.903 150.909 142.756 148.708C143.572 147.974 144.306 147.159 144.469 145.936C144.469 145.936 144.55 145.936 144.632 145.936V145.854C144.469 145.854 144.469 145.936 144.469 145.936ZM119.847 133.544C117.401 133.136 115.363 131.831 113.569 130.282C111.694 128.652 110.145 126.858 110.063 124.086C107.21 126.777 107.862 130.772 110.553 133.707C112.672 135.908 117.32 136.234 119.847 133.544ZM99.8724 130.527C96.5297 130.853 94.9807 128.57 93.5132 126.206C91.9641 123.76 91.8011 121.151 92.0457 118.379C90.3336 118.868 88.866 120.907 88.703 122.619C88.2953 125.717 91.1488 130.119 94.1654 131.179C96.1221 131.994 98.0788 131.831 99.8724 130.527ZM81.6915 105.416C79.3272 103.541 78.4304 101.014 77.9412 98.3232C77.452 95.6327 77.3705 92.9423 79.2457 90.6595C76.4737 90.9856 73.7017 94.4098 74.1909 98.5678C74.5985 102.481 77.6966 105.905 81.6915 105.416ZM125.309 147.403C122.619 148.463 120.173 148.3 117.727 147.485C115.281 146.67 113.08 145.447 112.02 142.838C110.879 144.713 112.917 148.871 115.689 150.42C119.684 152.703 123.597 150.746 125.309 147.403ZM101.258 149.849C102.563 149.849 103.786 149.116 103.704 147.974C103.704 146.914 103.623 145.773 103.134 144.876C101.911 142.186 99.7909 140.31 97.0189 139.169C96.2852 138.843 95.4699 138.761 94.6546 138.761C92.8609 138.68 91.475 140.8 92.5348 142.593C92.7794 140.881 93.5947 140.31 95.2253 140.881C95.5514 140.963 95.8775 141.126 96.1221 141.207C98.4049 142.43 100.117 144.305 100.932 146.751C101.258 147.648 101.177 148.708 101.258 149.849ZM77.3705 124.331C78.1043 124.412 78.5934 124.575 79.0826 124.494C80.6317 124.249 81.1208 123.026 81.3654 121.803C81.9361 117.89 80.3871 114.466 76.7998 112.346C74.6801 111.123 72.6418 112.346 72.5603 114.873C73.9463 113.651 74.8431 113.651 76.1476 115.037C77.8597 116.83 79.1641 118.787 79.0011 121.559C78.838 122.537 78.675 123.516 77.3705 124.331ZM95.0622 98.6493C92.4533 99.383 90.5782 103.215 91.475 105.824C92.6979 109.656 97.0189 111.694 99.7094 110.308C97.4266 109.248 95.8775 107.617 94.8992 105.416C93.8393 103.215 93.8393 100.932 95.0622 98.6493ZM88.4584 74.4353C86.7463 75.169 85.3603 76.392 84.382 77.941C83.2406 79.8162 82.9145 81.6913 84.1374 83.648C85.3603 85.6047 87.317 86.1754 89.6813 86.0939C87.2355 85.3601 86.2571 83.2404 86.1756 80.713C86.0941 78.4302 86.9909 76.3104 88.4584 74.4353ZM79.1641 60.82C78.4304 59.9232 77.8597 58.8633 78.1043 57.7219C78.5119 56.0098 79.2457 54.3792 80.3871 52.9117C81.61 51.3627 83.159 50.2213 85.1157 49.4875C83.8928 48.9168 82.9145 49.1614 82.0176 49.6506C79.0011 51.1181 77.1259 53.5639 76.2291 56.7435C76.066 57.3142 76.066 57.9665 76.066 58.5372C76.3106 60.2493 77.452 61.0646 79.1641 60.82ZM64.8151 94.6544C64.8966 94.7359 64.9781 94.8174 65.0597 94.899C65.7119 94.4098 66.4457 94.0021 67.0164 93.4314C68.6469 91.6378 69.5438 89.4365 69.8699 86.9907C70.0329 85.5232 70.0329 84.0557 69.8699 82.5881C69.7883 81.6098 68.8915 81.2837 68.1578 81.5283C67.0979 81.8544 65.5489 83.648 65.3858 84.8709C67.261 84.2187 68.2393 84.8709 68.4024 86.8276C68.4839 87.3983 68.4024 88.0506 68.3208 88.7028C67.8317 91.0671 66.7718 93.1053 64.8151 94.6544ZM90.1705 57.0697C86.9094 56.9066 83.8928 60.6569 84.6266 63.755C85.0342 65.6302 87.0724 66.7716 89.3552 66.527C85.5234 63.9996 87.2355 59.6786 90.1705 57.0697ZM94.5731 37.0136C91.5565 37.8289 89.5998 39.6225 88.2953 42.0684C88.0508 42.476 87.9692 43.0467 88.0508 43.4544C88.1323 44.8404 89.7629 45.7372 90.6597 45.3295C90.6597 44.5958 90.4966 43.9435 90.6597 43.3728C91.3934 41.0085 92.7794 38.9703 94.5731 37.0136ZM77.6151 134.522C80.061 134.44 82.6699 137.294 82.5068 140.392C83.6482 140.147 84.1374 139.658 84.2189 138.598C84.382 136.316 82.1807 133.462 79.8979 133.136C78.675 132.891 77.8597 133.38 77.6151 134.522ZM113.406 157.35C112.917 155.393 111.123 154.252 108.433 154.415C107.455 154.415 106.802 155.067 106.721 155.882C109.248 155.149 111.286 156.372 113.406 157.35ZM129.06 159.47C129.63 158.899 129.386 158.41 128.978 158.002C128 157.024 125.391 156.535 124.086 157.187C123.597 157.431 123.19 157.839 123.516 158.41C125.554 158.165 127.429 157.921 129.06 159.47ZM65.6304 107.047C66.6087 107.047 67.0164 106.558 67.0979 105.742C67.3425 104.438 66.6903 102.889 65.6304 102.318C65.0597 101.992 64.489 101.992 63.9998 102.563C65.7934 103.623 66.038 105.172 65.6304 107.047ZM82.2622 43.862C81.3654 43.0467 82.0176 42.5576 82.2622 42.0684C82.5883 41.5792 82.996 41.1716 83.3221 40.6824C83.2406 40.6009 83.159 40.6009 83.0775 40.5193C82.4253 41.1716 81.6915 41.8238 81.1208 42.6391C80.7947 43.0467 80.7947 43.699 80.6317 44.1881C81.2024 44.0251 81.7731 43.9435 82.2622 43.862Z" fill="#2A9927"/>
<path d="M127.674 195.832C128.897 202.354 130.201 208.877 131.424 215.399H131.506C131.75 212.953 131.913 210.507 132.158 208.143C132.403 205.534 132.81 203.007 132.892 200.398C133.218 194.772 134.848 189.554 137.131 184.581C137.947 182.788 139.006 181.238 139.985 179.445C135.908 179.526 131.669 179.363 127.674 177.814C129.386 177.407 131.18 177.081 132.81 176.51C134.441 175.939 136.071 175.205 137.62 174.309C132.729 173.33 127.755 172.596 122.864 170.721C124.494 170.64 125.88 170.477 127.266 170.395C129.712 170.232 132.158 170.232 134.604 169.988C139.333 169.498 144.061 168.846 148.627 167.216C149.931 166.726 151.317 166.563 152.703 166.319C153.355 166.156 153.682 166.563 153.926 167.052C154.66 168.438 154.66 169.906 154.497 171.292C154.008 174.553 152.051 176.999 149.198 178.303C143.164 181.075 140.392 186.13 139.088 192.163C138.191 196.321 137.457 200.479 136.724 204.719C136.153 208.306 135.664 211.975 135.175 215.562C134.604 219.638 134.115 223.715 133.626 227.791C133.299 230.563 133.055 233.335 132.81 236.107C132.484 240.102 131.832 244.016 130.038 247.603C129.549 248.5 129.386 248.581 128.652 247.766C128 247.032 127.674 246.298 127.674 245.32C127.674 242.956 127.592 240.673 127.511 238.309C127.429 236.759 127.348 235.292 127.348 233.743C127.266 231.216 127.185 228.77 127.103 226.242C127.022 219.638 126.94 212.953 126.94 206.349C126.94 202.925 127.185 199.501 127.348 196.077C127.348 195.995 127.429 195.832 127.429 195.751C127.592 195.832 127.592 195.832 127.674 195.832Z" fill="white"/>
<path d="M125.228 243.934C124.739 241.325 124.25 238.716 123.761 236.025C123.271 233.09 122.782 230.155 122.375 227.139C122.048 224.937 121.885 222.736 121.559 220.535C120.907 216.214 120.336 211.893 119.521 207.572C119.032 204.963 118.38 202.354 117.809 199.745C117.157 196.484 116.505 193.304 115.852 190.043C115.608 188.82 115.119 187.597 114.711 186.456C113.325 182.543 110.798 179.607 107.21 177.569C105.743 176.672 104.357 175.613 103.215 174.39C101.585 172.678 100.688 170.558 100.688 168.112C100.688 167.704 100.77 167.215 100.933 166.807C101.422 164.932 101.748 164.606 103.623 164.769C104.927 164.932 106.15 165.258 107.373 165.748C108.596 166.237 109.167 167.215 108.841 168.52C108.352 170.721 109.004 172.678 110.308 174.308C111.45 175.694 112.836 176.999 114.14 178.221C115.2 179.281 116.423 180.26 117.564 181.32C119.929 183.765 121.478 186.7 121.885 190.125C122.13 192.407 122.375 194.69 122.456 196.973C122.619 200.316 122.701 203.658 122.864 207.001C123.027 210.425 123.353 213.85 123.679 217.355C123.924 220.29 124.25 223.144 124.413 226.079C124.657 229.34 124.82 232.601 124.984 235.862C125.147 238.634 125.391 241.325 125.636 244.015C125.391 243.934 125.31 243.934 125.228 243.934Z" fill="white"/>
<path d="M96.6929 66.0383C96.7744 65.7122 96.7744 65.3861 96.9375 65.0599C98.3234 62.6956 100.443 61.3912 103.215 61.3096C104.846 61.2281 106.395 61.4727 107.862 62.3695C110.96 64.3262 111.368 68.4026 109.574 71.0115C107.944 73.4574 105.579 74.4357 102.808 74.5173C102.563 74.5173 102.237 74.4357 102.074 74.4357C102.889 73.6205 103.786 72.9682 104.357 72.1529C105.335 70.8485 105.335 69.2179 104.601 67.8319C103.786 66.3644 102.4 65.5491 100.688 65.3861C99.3833 65.3045 97.9973 65.3861 96.6929 66.0383Z" fill="#2B9A28"/>
<path d="M116.505 118.543C117.728 113.325 112.918 106.069 107.781 105.335C108.597 103.949 109.819 103.134 111.287 102.971C112.591 102.808 114.059 102.808 115.2 103.297C120.663 105.498 122.456 111.205 119.766 115.934C118.951 117.483 117.728 118.379 116.505 118.543Z" fill="#2B9A28"/>
<path d="M98.2422 84.3004C99.7912 80.9577 104.275 80.3055 106.803 82.5067C109.249 84.708 110.145 88.5399 109.086 91.3118C108.026 94.0023 104.52 95.6329 101.748 94.1653C103.542 92.3717 103.623 90.252 103.052 88.0507C102.319 85.4418 101.177 84.6265 98.2422 84.3004Z" fill="#2B9A28"/>
<path d="M112.265 89.1108C112.917 88.2955 113.488 87.3987 114.303 86.6649C115.852 85.2789 117.809 85.1974 119.766 85.7681C124.331 87.1541 126.777 93.2688 124.494 97.5082C123.679 98.9758 122.538 100.036 120.744 100.443C122.13 97.5082 121.396 94.8178 119.603 92.4535C117.891 90.0891 115.852 88.1325 112.265 89.1108Z" fill="#2B9A28"/>
<path d="M118.624 82.5073C121.152 81.1213 121.315 78.8385 120.907 76.2296C120.336 73.1315 118.217 71.5824 114.629 71.4194C115.608 69.7073 117.809 69.055 119.44 69.2996C123.271 69.8703 125.554 72.7238 125.31 76.6372C125.065 79.9799 123.108 82.0996 120.581 82.5073C119.929 82.5888 119.277 82.5073 118.624 82.5073Z" fill="#2C9A29"/>
<path d="M126.533 126.288C127.511 124.25 129.142 123.271 131.343 123.271C134.686 123.271 138.191 125.799 138.844 128.734C139.333 130.935 138.436 133.626 136.724 134.767C135.99 131.343 134.115 128.897 131.18 127.103C129.794 126.207 128.245 125.962 126.614 126.451C126.614 126.37 126.533 126.37 126.533 126.288Z" fill="#2C9A29"/>
<path d="M124.983 111.775C126.614 108.596 129.467 107.944 132.239 109.003C132.566 109.085 132.892 109.493 133.055 109.819C133.87 111.775 134.685 113.814 135.419 115.77C135.501 116.096 135.582 116.504 135.419 116.749C134.685 118.461 133.299 119.602 131.669 120.581C132.239 118.216 131.832 116.178 130.446 114.384C129.06 112.754 127.592 111.286 124.983 111.775Z" fill="#2C9A29"/>
<path d="M111.042 51.2001C112.673 49.1619 114.792 48.4282 117.238 48.8358C120.092 49.2435 121.559 51.2817 121.478 54.2982C121.396 56.9072 118.543 59.7607 115.771 59.8422C117.401 58.6193 117.89 57.1517 117.809 55.2766C117.727 53.2384 115.689 51.1186 113.651 51.1186C112.836 51.1186 112.02 51.2817 111.124 51.2817C111.124 51.2817 111.124 51.2817 111.042 51.2001Z" fill="#2D9B2A"/>
<path d="M98.242 55.2765C102.074 52.423 103.297 48.9988 97.019 45.9822C98.0789 44.6777 99.791 44.3516 101.503 45.0038C104.764 46.1453 105.661 50.5478 103.704 52.9937C102.318 54.5427 100.443 55.1134 98.242 55.2765Z" fill="#2D9B2A"/>
<path d="M113.325 40.683C113.162 36.199 109.901 34.813 105.335 37.0143C105.661 36.4436 105.987 35.8729 106.476 35.4652C108.352 33.8346 110.553 33.2639 112.999 33.6716C113.895 33.8346 114.874 33.9977 115.689 34.4053C116.749 34.8945 117.075 35.8729 116.667 36.8512C115.934 38.4818 114.955 39.7862 113.325 40.683Z" fill="#2D9B2A"/>
<path d="M125.065 57.8856C127.185 56.7442 129.631 56.9888 131.343 58.5378C131.832 58.9455 131.995 59.3531 131.75 60.0869C131.18 61.8805 130.772 63.6741 130.364 65.4678C130.201 66.12 129.875 66.5276 129.304 66.6907C128.408 66.9353 127.429 67.0983 126.451 67.1799C127.837 65.6308 128.571 64.0002 128.326 61.962C128.163 59.9238 126.94 58.7009 125.065 57.8856Z" fill="#2D9B2A"/>
<path d="M119.603 42.3127C119.684 42.1497 119.684 41.9866 119.766 41.9051C121.559 39.9484 125.228 39.6223 127.266 40.6006C128.489 41.1713 129.223 42.1497 129.141 43.5357C129.06 45.0032 128.326 46.0631 127.103 46.9599C127.511 43.6987 125.88 41.9051 122.701 41.9866C121.559 41.9866 120.581 42.2312 119.603 42.3127Z" fill="#2D9B2A"/>
<path d="M133.952 38.7266C134.93 36.6884 134.522 35.6285 132.403 35.1394C131.017 34.8133 129.549 34.8948 128.163 34.7317C129.549 33.998 131.098 33.7534 132.729 33.998C133.544 34.0795 134.359 34.3241 135.093 34.6502C136.479 35.3024 136.642 36.5254 135.501 37.5852C135.093 38.0744 134.522 38.319 133.952 38.7266Z" fill="#319D2E"/>
<path d="M131.75 50.1396C131.75 47.5307 133.87 45.9816 137.294 46.3077C136.887 47.0415 136.642 47.7753 136.153 48.4275C135.99 48.6721 135.501 48.7536 135.175 48.7536C133.87 48.6721 132.729 49.0797 131.75 50.1396Z" fill="#319D2E"/>
<path d="M118.053 28.6158C120.418 27.5559 122.619 27.3928 124.82 27.9635C125.554 28.1266 126.369 28.2897 126.532 29.268C126.777 30.3279 126.125 30.8986 125.391 31.3877C125.146 31.5508 124.902 31.7139 124.657 31.7954C124.576 31.7139 124.494 31.6323 124.576 31.6323C125.554 30.0018 124.902 28.7788 122.782 28.6158C121.314 28.5342 119.847 28.6158 118.053 28.6158Z" fill="#319D2E"/>
<path d="M130.038 23.8056C132.158 23.398 134.033 23.7241 135.827 24.7839C136.479 25.1916 137.213 25.5992 137.131 26.5776C137.05 27.4744 136.234 27.8005 135.501 28.0451C135.174 28.2081 134.848 28.2081 134.441 28.2081C134.522 28.1266 134.685 28.0451 134.767 27.882C135.745 27.0667 135.908 26.1699 134.767 25.5177C133.544 24.7839 132.076 24.4578 130.772 23.8871C130.609 23.8871 130.283 23.8871 130.038 23.8056Z" fill="#319D2E"/>
<path d="M107.536 25.437C108.433 24.6217 109.819 24.3771 111.123 24.2141C112.265 24.051 113.488 24.051 114.629 24.2141C115.2 24.2956 115.689 24.8663 116.26 25.1924C115.934 25.6816 115.526 26.2523 115.037 26.9045C114.711 25.6001 114.058 25.0294 112.835 25.1109C111.042 25.1924 109.248 25.3555 107.536 25.437Z" fill="#319D2E"/>
<path d="M98.5679 29.3498C99.6277 29.0237 100.525 28.6161 101.421 28.5345C102.4 28.3715 102.889 29.1052 102.481 30.0021C102.074 30.8173 101.421 31.4696 100.932 32.1218C100.851 32.0403 100.769 32.0403 100.688 31.9587C100.606 31.3065 100.688 30.5728 100.443 30.1651C100.117 29.7575 99.3832 29.6759 98.5679 29.3498Z" fill="#319D2E"/>
<path d="M139.985 30.2471C142.594 29.4318 144.877 30.2471 147.159 31.4701C146.833 31.8777 146.589 32.2038 146.426 32.3669C145.366 31.7962 144.387 31.1439 143.328 30.8178C142.268 30.4917 141.045 30.4102 139.985 30.2471Z" fill="#319D2E"/>
<path d="M129.386 96.1221C128.815 96.5298 128.326 96.8559 127.837 97.182C127.755 97.182 127.674 97.1005 127.592 97.1005C128 95.9591 128.408 94.8992 128.815 93.7578C128.897 93.7578 129.06 93.8393 129.141 93.8393C129.223 94.5731 129.304 95.3884 129.386 96.1221Z" fill="#319D2E"/>
<path d="M141.941 38.2373C141.534 40.1125 139.903 39.5418 138.843 39.9494C139.414 38.6449 140.555 38.3188 141.941 38.2373Z" fill="#319D2E"/>
<path d="M147.812 25.8447C149.034 26.0078 150.257 26.0893 151.562 26.2524C151.562 26.4154 151.562 26.5785 151.643 26.7415C151.317 26.8231 151.073 26.9861 150.747 26.9046C149.768 26.66 148.79 26.2524 147.893 25.9263C147.812 25.8447 147.812 25.8447 147.812 25.8447Z" fill="#319D2E"/>
<path d="M111.205 51.3638C111.124 51.4453 111.042 51.4453 111.042 51.5268C111.042 51.4453 111.124 51.3638 111.124 51.2822C111.124 51.2822 111.124 51.2822 111.205 51.3638Z" fill="#2D9B2A"/>
<path d="M119.603 42.3135C119.521 42.395 119.439 42.395 119.439 42.4765V42.395C119.439 42.395 119.521 42.3135 119.603 42.3135Z" fill="#2D9B2A"/>
<path d="M126.614 126.451C126.533 126.451 126.533 126.533 126.451 126.533C126.451 126.451 126.451 126.37 126.451 126.288C126.533 126.37 126.614 126.37 126.614 126.451Z" fill="#2C9A29"/>
<path d="M96.6928 65.957C96.6113 65.957 96.6113 66.0386 96.5298 66.0386V65.957C96.6113 66.0386 96.6928 66.0386 96.6928 65.957Z" fill="#2B9A28"/>
<path d="M80.795 67.9951C80.8765 68.0766 80.8765 68.1582 80.958 68.2397C80.8765 68.2397 80.795 68.1582 80.7135 68.1582C80.6319 68.1582 80.7135 68.0766 80.795 67.9951Z" fill="#F9FCF9"/>
<path d="M143.653 154.986C143.572 154.905 143.49 154.823 143.409 154.823C143.49 154.823 143.653 154.823 143.735 154.823C143.735 154.905 143.653 154.905 143.653 154.986Z" fill="#FBFDFB"/>
<path d="M144.469 145.937L144.55 145.855V145.937H144.469Z" fill="#FBFDFB"/>
<path d="M68.2397 62.8584C68.2397 62.9399 68.2397 62.9399 68.2397 62.9399C68.2397 62.9399 68.3213 62.8584 68.2397 62.8584Z" fill="#F9FCF9"/>
</svg>
